<svg preserveAspectRatio="none" width="100%" height="100%" overflow="visible" style="display: block;" viewBox="0 0 61.1992 39.8345" fill="none" xmlns="http://www.w3.org/2000/svg">
<g id="audio wave">
<path id="Vector" d="M6.02933 11.5264C6.02933 9.76039 4.67923 8.3286 3.01414 8.3286C1.35009 8.3286 0 9.76039 0 11.5264V28.3076C0 30.0737 1.35009 31.5054 3.01414 31.5054C4.67923 31.5054 6.02933 30.0737 6.02933 28.3076V11.5264Z" fill="var(--fill-0, #FF9E82)"/>
<path id="Vector_2" d="M17.0635 17.3207C17.0635 15.5547 15.7134 14.1229 14.0494 14.1229C12.3843 14.1229 11.0342 15.5547 11.0342 17.3207V22.5132C11.0342 24.2794 12.3843 25.711 14.0494 25.711C15.7134 25.711 17.0635 24.2794 17.0635 22.5132V17.3207Z" fill="var(--fill-0, #FF9E82)"/>
<path id="Vector_3" d="M28.0966 8.62963C28.0966 6.86349 26.7476 5.43181 25.0825 5.43181C23.4174 5.43181 22.0684 6.86349 22.0684 8.62963V31.2046C22.0684 32.9708 23.4174 34.4025 25.0825 34.4025C26.7476 34.4025 28.0966 32.9708 28.0966 31.2046V8.62963Z" fill="var(--fill-0, #FF9E82)"/>
<path id="Vector_4" d="M39.1309 3.19771C39.1309 1.43168 37.7808 0 36.1167 0C34.4516 0 33.1016 1.43168 33.1016 3.19771V36.6367C33.1016 38.4029 34.4516 39.8345 36.1167 39.8345C37.7808 39.8345 39.1309 38.4029 39.1309 36.6367V3.19771Z" fill="var(--fill-0, #FF9E82)"/>
<path id="Vector_5" d="M50.165 8.62963C50.165 6.86349 48.8159 5.43181 47.1509 5.43181C45.4858 5.43181 44.1367 6.86349 44.1367 8.62963V31.2046C44.1367 32.9708 45.4858 34.4025 47.1509 34.4025C48.8159 34.4025 50.165 32.9708 50.165 31.2046V8.62963Z" fill="var(--fill-0, #FF9E82)"/>
<path id="Vector_6" d="M61.1992 17.3207C61.1992 15.5547 59.8492 14.1229 58.1841 14.1229C56.52 14.1229 55.1699 15.5547 55.1699 17.3207V22.5132C55.1699 24.2793 56.52 25.711 58.1841 25.711C59.8492 25.711 61.1992 24.2793 61.1992 22.5132V17.3207Z" fill="var(--fill-0, #FF9E82)"/>
</g>
</svg>
