<svg preserveAspectRatio="none" width="100%" height="100%" overflow="visible" style="display: block;" viewBox="0 0 38.0003 34.8642" fill="none" xmlns="http://www.w3.org/2000/svg">
<path id="Vector 9778" d="M1.95759 0.711259C1.79798 0.182542 1.23998 -0.116677 0.711259 0.0429362C0.182542 0.202549 -0.116677 0.760551 0.0429362 1.28927L1.00026 1.00026L1.95759 0.711259ZM37.7074 28.2074C38.0979 27.8168 38.0979 27.1837 37.7074 26.7932L31.3434 20.4292C30.9529 20.0387 30.3197 20.0387 29.9292 20.4292C29.5387 20.8197 29.5387 21.4529 29.9292 21.8434L35.586 27.5003L29.9292 33.1571C29.5387 33.5476 29.5387 34.1808 29.9292 34.5713C30.3197 34.9619 30.9529 34.9619 31.3434 34.5713L37.7074 28.2074ZM1.00026 1.00026L0.0429362 1.28927C2.77702 10.3459 13.9818 28.5003 37.0003 28.5003V27.5003V26.5003C15.2188 26.5003 4.55684 9.32128 1.95759 0.711259L1.00026 1.00026Z" fill="var(--stroke-0, #E7C6AC)"/>
</svg>
