<svg preserveAspectRatio="none" width="100%" height="100%" overflow="visible" style="display: block;" viewBox="0 0 109.923 11.12" fill="none" xmlns="http://www.w3.org/2000/svg">
<g id="storyworth-wordmark">
<path d="M1.63374 7.39299C1.63374 8.77169 2.45168 9.55823 3.58438 9.55823C4.50296 9.55823 5.23311 8.93668 5.23311 7.97611C5.23311 6.90254 4.32952 6.55447 3.64219 6.29681C1.80718 5.61876 0.329746 5.02434 0.329746 2.90657C0.329746 1.15042 1.76435 0 3.44092 0C5.2481 0 6.63988 1.3561 6.63988 3.3134H4.99115C4.99115 2.2692 4.41731 1.55951 3.49231 1.55951C2.67651 1.55951 1.99346 2.01154 1.99346 2.91561C1.99346 3.81967 2.71077 4.18582 3.45591 4.47286C5.01899 5.06502 6.89897 5.76115 6.89897 7.78852C6.89897 9.96958 5.3209 11.12 3.45591 11.12C1.63588 11.12 0 9.7639 0 7.39525L1.63374 7.39299Z" fill="black"/>
<path d="M11.8923 1.82169H9.41702V0.264435H16.0355V1.82169H13.541V10.8623H11.8923V1.82169Z" fill="black"/>
<path d="M18.4486 5.56227C18.4486 2.68508 20.4143 0.00678711 23.6411 0.00678711C26.8679 0.00678711 28.8313 2.68508 28.8313 5.56227C28.8313 8.43945 26.8679 11.1177 23.6411 11.1177C20.4143 11.1177 18.4486 8.43267 18.4486 5.56227ZM27.097 5.56227C27.097 3.50326 25.778 1.5663 23.6411 1.5663C21.5041 1.5663 20.1852 3.50326 20.1852 5.56227C20.1852 7.62128 21.5041 9.56275 23.6411 9.56275C25.778 9.56275 27.097 7.62128 27.097 5.56227Z" fill="black"/>
<path d="M32.1481 0.264438H35.7539C36.5663 0.261866 37.3546 0.555081 37.9861 1.09464C38.6175 1.6342 39.0534 2.38709 39.2201 3.22636C39.3869 4.06563 39.2744 4.93993 38.9015 5.70182C38.5287 6.46372 37.9184 7.06661 37.1735 7.40881L39.167 10.8601H37.2891L35.452 7.68003H33.8032V10.8601H32.1545L32.1481 0.264438ZM37.6403 3.97111C37.6403 2.80712 36.8951 1.82169 35.7474 1.82169H33.7968V6.116H35.7539C36.8951 6.12052 37.6403 5.13735 37.6403 3.97111Z" fill="black"/>
<path d="M45.6462 6.56125L41.5887 0.264435H43.5671L46.4599 4.7599L49.3698 0.264435H51.3483L47.28 6.56125V10.8556H45.6462V6.56125Z" fill="black"/>
<path d="M60.5919 3.30661L58.2687 10.8601H57.0803L53.6072 0.264435H55.3416L57.6498 7.8179L59.9731 0.264435H61.1935L63.5168 7.8179L65.825 0.264435H67.5594L64.0906 10.8601H62.9001L60.5919 3.30661Z" fill="black"/>
<path d="M69.6877 5.56227C69.6877 2.68508 71.6512 0.00678711 74.878 0.00678711C78.1048 0.00678711 80.0769 2.68508 80.0769 5.56227C80.0769 8.43945 78.1112 11.1177 74.8844 11.1177C71.6576 11.1177 69.6877 8.43267 69.6877 5.56227ZM78.3339 5.56227C78.3339 3.50326 77.0149 1.5663 74.878 1.5663C72.7411 1.5663 71.4221 3.50326 71.4221 5.56227C71.4221 7.62128 72.7411 9.56275 74.878 9.56275C77.0149 9.56275 78.3339 7.62128 78.3339 5.56227Z" fill="black"/>
<path d="M83.385 0.264438H86.9844C87.7968 0.261866 88.5852 0.555081 89.2166 1.09464C89.848 1.6342 90.2839 2.38709 90.4506 3.22636C90.6174 4.06563 90.5049 4.93993 90.1321 5.70182C89.7592 6.46372 89.1489 7.06661 88.404 7.40881L90.3975 10.8601H88.5196L86.6846 7.68003H85.0359V10.8601H83.385V0.264438ZM88.8793 3.97111C88.8793 2.80712 88.1321 1.82169 86.9844 1.82169H85.0359V6.116H86.9844C88.1321 6.12052 88.8793 5.13735 88.8793 3.97111Z" fill="black"/>
<path d="M95.4207 1.82169H92.9412V0.264435H99.5618V1.82169H97.0695V10.8623H95.4207V1.82169Z" fill="black"/>
<path d="M108.274 6.37818H104.129V10.8601H102.48V0.264435H104.129V4.8164H108.274V0.264435H109.923V10.8601H108.274V6.37818Z" fill="black"/>
</g>
</svg>
