<svg preserveAspectRatio="none" width="100%" height="100%" overflow="visible" style="display: block;" viewBox="0 0 16.3543 26.77" fill="none" xmlns="http://www.w3.org/2000/svg">
<g id="S">
<path d="M13.9447 2.34652C10.7733 -0.782174 5.59654 -0.782174 2.40962 2.34652C0.855026 3.8863 0 5.93387 0 8.09611C0 8.40735 0 9.01343 0 9.01343V18.678C0 20.8566 0.855026 22.8878 2.40962 24.4276C3.99531 26.0001 6.09401 26.77 8.17716 26.77C10.2603 26.77 12.359 25.9837 13.9447 24.4276C15.4993 22.8878 16.3543 20.8566 16.3543 18.678V8.09611C16.3543 5.93387 15.4993 3.8863 13.9447 2.34652ZM13.9447 12.9284L9.49857 8.58753C9.24983 8.34182 8.87673 8.3582 8.64354 8.62029C8.4259 8.88238 8.4259 9.27552 8.67463 9.52123L13.1363 13.8457C14.4422 15.1398 15.1573 16.8434 15.1573 18.6616C15.1573 20.4799 14.4422 22.1998 13.1363 23.4775C10.4002 26.1639 5.96964 26.1639 3.23355 23.4775C1.9277 22.1834 1.21258 20.4799 1.21258 18.6452V12.3387C1.55459 12.8793 1.95879 13.387 2.42517 13.8457L6.68475 17.9572C6.79357 18.0719 6.94903 18.121 7.08895 18.121C7.24441 18.121 7.41541 18.0555 7.53978 17.9081C7.75742 17.646 7.74188 17.2529 7.50869 17.0072L3.23355 12.9284C1.9277 11.6343 1.21258 9.93074 1.21258 8.11249C1.21258 6.29425 1.9277 4.57428 3.23355 3.2966C5.95409 0.593797 10.4002 0.593797 13.1208 3.28022C14.4266 4.57428 15.1417 6.27787 15.1417 8.11249V14.4354C14.8153 13.8948 14.4111 13.387 13.9447 12.9284Z" fill="black"/>
<path d="M5.08352 5.00021C6.79357 3.32939 9.56075 3.32939 11.2708 5.00021C11.9393 5.65544 12.359 6.47447 12.5145 7.3754C12.5767 7.75215 12.2968 8.09615 11.9393 8.09615H11.8926C11.5973 8.09615 11.3641 7.86682 11.3174 7.57197C11.2086 6.9495 10.9132 6.37618 10.4469 5.91752C9.20319 4.68898 7.16667 4.68898 5.90745 5.91752C5.31671 6.49085 4.99024 7.27711 4.99024 8.09615C4.99024 8.91518 5.31671 9.68506 5.90745 10.2748L6.03182 10.4058L11.2708 15.5657C12.0947 16.3847 12.5611 17.4986 12.5611 18.678C12.5611 19.8574 12.1103 20.9549 11.2708 21.7903C10.4158 22.6257 9.29647 23.0516 8.17716 23.0516C7.05785 23.0516 5.93854 22.6257 5.08352 21.7903C4.41504 21.1351 3.9953 20.2997 3.83984 19.3988C3.77766 19.022 4.05748 18.678 4.41504 18.678H4.46168C4.75705 18.678 4.99024 18.9073 5.03688 19.2022C5.1457 19.8247 5.44107 20.398 5.90745 20.8566C7.15113 22.0852 9.18764 22.0852 10.4469 20.8566C11.0376 20.2833 11.3641 19.497 11.3641 18.678C11.3641 17.859 11.0376 17.0891 10.4469 16.4994L5.19234 11.3231C5.16125 11.2904 5.11461 11.2576 5.08352 11.2248C4.24404 10.3894 3.77766 9.29193 3.77766 8.11253C3.77766 6.93312 4.24404 5.83562 5.08352 5.00021Z" fill="black"/>
</g>
</svg>
