<svg preserveAspectRatio="none" width="100%" height="100%" overflow="visible" style="display: block;" viewBox="0 0 20.5 20.5" fill="none" xmlns="http://www.w3.org/2000/svg">
<g id="elements">
<path id="Rectangle 2056" d="M0.75 10.25C0.75 5.77166 0.75 3.53249 2.14124 2.14124C3.53249 0.75 5.77166 0.75 10.25 0.75C14.7283 0.75 16.9675 0.75 18.3588 2.14124C19.75 3.53249 19.75 5.77166 19.75 10.25C19.75 14.7283 19.75 16.9675 18.3588 18.3588C16.9675 19.75 14.7283 19.75 10.25 19.75C5.77166 19.75 3.53249 19.75 2.14124 18.3588C0.75 16.9675 0.75 14.7283 0.75 10.25Z" stroke="var(--stroke-0, #042A21)" stroke-width="1.5" stroke-linecap="round"/>
<path id="Vector" d="M13.25 8.25C13.25 6.59315 11.9069 5.25 10.25 5.25C8.59315 5.25 7.25 6.59315 7.25 8.25C7.25 9.90685 8.59315 11.25 10.25 11.25C11.9069 11.25 13.25 9.90685 13.25 8.25Z" stroke="var(--stroke-0, #042A21)" stroke-width="1.5" stroke-linecap="round"/>
<path id="Vector_2" d="M15.25 16.25C15.25 13.4886 13.0114 11.25 10.25 11.25C7.48858 11.25 5.25 13.4886 5.25 16.25" stroke="var(--stroke-0, #042A21)" stroke-width="1.5" stroke-linecap="round"/>
</g>
</svg>
