<svg preserveAspectRatio="none" width="100%" height="100%" overflow="visible" style="display: block;" viewBox="0 0 41 19" fill="none" xmlns="http://www.w3.org/2000/svg">
<g id="cnn-logo 1" clip-path="url(#clip0_0_1605)">
<path id="Vector" d="M13.1652 0.00994568C13.1652 0.00138129 9.63812 0.00994568 9.63812 0.00994568C4.4173 0.00994568 0.184847 4.25904 0.184847 9.50038C0.184847 14.7417 4.4173 18.9908 9.63812 18.9908L16.2698 18.9852C17.9358 18.9852 19.2864 17.6399 19.2864 15.9672L19.29 10.1788L23.8737 17.437C24.4936 18.3789 25.5577 19.0002 26.7664 19.0002C28.6799 19.0002 30.2312 17.4429 30.2312 15.5219L30.2301 10.1787L34.8139 17.4369C35.4338 18.3788 36.4979 19.0002 37.7066 19.0002C39.6201 19.0002 41.1713 17.4428 41.1713 15.5218L41.1703 0.00138129H38.8118V15.522C38.8118 16.1347 38.317 16.6315 37.7067 16.6315C37.3252 16.6315 36.9889 16.4375 36.7903 16.1423L28.6317 3.24085C28.5812 3.16702 28.5084 3.11136 28.4241 3.08203C28.3398 3.05269 28.2483 3.0512 28.1631 3.07779C28.0779 3.10437 28.0033 3.15763 27.9504 3.22978C27.8975 3.30192 27.869 3.38917 27.869 3.47876L27.8716 15.5221C27.8716 16.1348 27.3768 16.6315 26.7665 16.6315C26.385 16.6315 26.0487 16.4376 25.8501 16.1424L17.6915 3.24085C17.641 3.16703 17.5682 3.11139 17.4839 3.08206C17.3996 3.05273 17.3081 3.05125 17.2229 3.07783C17.1377 3.10441 17.0632 3.15767 17.0102 3.2298C16.9573 3.30194 16.9288 3.38918 16.9288 3.47876L16.927 15.9673C16.927 16.3317 16.6328 16.627 16.2699 16.627L9.63818 16.622C5.72046 16.6219 2.54444 13.4334 2.54444 9.50038C2.54444 5.56732 5.72046 2.37876 9.63812 2.37876L13.1652 2.37615V0.00994568Z" fill="var(--fill-0, #767676)"/>
<path id="Vector_2" d="M13.5448 13.5797C13.6339 13.5797 13.7193 13.5441 13.7824 13.4808C13.8454 13.4176 13.8808 13.3318 13.8808 13.2423L13.8817 3.4783C13.8816 1.55738 15.4329 0 17.3463 0C18.5593 0 19.6268 0.625868 20.2458 1.57348L24.8136 8.7672L24.8218 3.47836C24.8218 1.55738 26.373 0 28.2865 0C29.4995 0 30.5669 0.625868 31.1859 1.57348L35.7537 8.7672V0.00103259H38.1284L38.1242 15.5216C38.1242 15.6097 38.0965 15.6956 38.0452 15.7671C37.9939 15.8385 37.9215 15.892 37.8382 15.9198C37.755 15.9477 37.6651 15.9485 37.5813 15.9223C37.4976 15.896 37.4241 15.8439 37.3715 15.7735L29.2029 2.85801C29.0043 2.56294 28.668 2.36887 28.2865 2.36887C27.6761 2.36887 27.1814 2.86561 27.1814 3.47836L27.184 15.5216C27.184 15.6097 27.1563 15.6956 27.105 15.767C27.0537 15.8385 26.9812 15.8919 26.898 15.9198C26.8147 15.9476 26.7249 15.9485 26.6411 15.9222C26.5573 15.896 26.4839 15.8439 26.4312 15.7735L18.2627 2.85801C18.0641 2.56294 17.7278 2.36887 17.3463 2.36887C16.736 2.36887 16.2412 2.86561 16.2412 3.47836L16.2462 15.6171C16.2462 15.7065 16.2108 15.7923 16.1478 15.8556C16.0848 15.9189 15.9993 15.9544 15.9102 15.9544L9.63751 15.9531C6.0992 15.9531 3.23078 13.0522 3.23078 9.50009C3.23078 5.94788 6.0992 3.04692 9.63751 3.04692C9.63751 3.04692 13.1646 3.03313 13.1646 3.04692V5.43966L9.63751 5.43699C7.40236 5.43699 5.59037 7.2561 5.59037 9.50009C5.59037 11.744 7.40236 13.5843 9.63751 13.5843L13.5448 13.5797Z" fill="var(--fill-0, #767676)"/>
</g>
<defs>
<clipPath id="clip0_0_1605">
<rect width="41" height="19" fill="white"/>
</clipPath>
</defs>
</svg>
