<svg preserveAspectRatio="none" width="100%" height="100%" overflow="visible" style="display: block;" viewBox="0 0 47.1225 18.4125" fill="none" xmlns="http://www.w3.org/2000/svg">
<path id="path5" d="M16.5671 0.000111971L16.4941 0.2653C17.6224 0.324908 17.9415 0.826611 17.9415 1.26283C17.9415 1.51865 17.841 1.815 17.6396 2.1477C17.6396 2.1477 12.0874 11.0484 11.6525 11.7454C11.6274 11.6353 9.34797 1.7152 9.34797 1.7152C9.30727 1.53254 9.28686 1.37223 9.28686 1.23168C9.28686 0.543586 9.80342 0.305266 10.8019 0.267221L10.8755 0H6.46748L6.3917 0.265188C7.33426 0.302669 7.88511 0.561197 8.18139 1.78903C8.70732 4.00402 10.7442 12.8013 10.8036 13.0586C8.67136 16.2494 6.87318 18.0977 3.99887 18.0977C1.9033 18.0977 0.323413 16.6154 0.323413 14.6494C0.323413 12.6879 1.85532 11.0917 3.73789 11.0917C4.90888 11.0917 5.54104 11.7023 5.54104 12.2777C5.54104 12.6084 5.36267 12.774 5.22887 12.8703C5.07235 12.9723 4.92708 13.1009 4.92708 13.3454C4.92708 13.5782 5.10478 13.7471 5.34977 13.7471C5.75337 13.7471 5.97144 13.2488 5.97144 12.7802C5.97144 11.5737 5.1157 10.8237 3.738 10.8237C1.42933 10.8237 0 12.8425 0 14.7125C0 16.5312 1.49584 18.4125 3.99898 18.4125C7.65425 18.4125 9.5805 15.4474 11.62 12.3088C11.62 12.3088 17.4866 2.96404 18.1085 2.01708C18.8288 0.919749 19.7611 0.309894 20.7938 0.266542L20.868 0L16.5671 0.000111971ZM16.2391 9.6223C16.2391 11.7734 17.6254 12.8983 18.995 12.8983C20.1898 12.8983 21.4245 12.2718 22.3834 11.1782C23.366 10.0572 23.9298 8.56844 23.9298 7.09359C23.9298 5.2375 22.8533 3.99069 21.251 3.99069C18.7685 3.99058 16.2391 6.83269 16.2391 9.6223ZM17.1918 9.95241C17.1918 7.5122 19.1755 4.23647 21.2051 4.23647C22.6446 4.23647 22.9466 5.55371 22.9466 6.6533C22.9466 8.74467 21.5839 12.6523 18.9791 12.6523C17.8602 12.6523 17.1918 11.6394 17.1918 9.95241ZM29.3096 4.13181C29.3092 4.13181 27.8294 4.15891 27.8294 4.15891C27.1034 4.17753 26.3375 4.19605 25.7753 4.17878L25.7164 4.38334C26.5516 4.43742 26.8653 4.65113 26.5548 5.67225L24.8815 11.3438C24.6642 12.0582 24.1924 12.431 23.4591 12.4747L23.3817 12.694H26.7327L26.7924 12.4747C26.1654 12.4444 25.6952 12.3428 25.6952 11.776C25.6952 11.6467 25.7205 11.4977 25.7708 11.3263C25.7708 11.3263 26.5846 8.54924 26.5946 8.51572C26.6283 8.51572 28.085 8.51572 28.1129 8.51572C28.1179 8.5261 28.1238 8.53717 28.1238 8.53717C28.7879 9.89822 29.6148 11.5904 30.1015 12.6802L30.1076 12.694H34.6076L34.6662 12.4733C34.0451 12.4597 33.5557 12.3235 33.5557 11.7694C33.5557 11.6421 33.5809 11.4949 33.6297 11.3262C33.6297 11.3262 34.2952 9.05625 34.3185 8.97734C34.3298 8.96797 35.4284 8.09214 35.4713 8.05725C37.0059 11.2265 39.5703 16.4964 44.5664 16.4964C46.0001 16.4964 47.1225 15.5815 47.1225 14.4143C47.1225 13.5208 46.4698 13.0395 45.856 13.0395C45.2494 13.0395 44.9266 13.4636 44.9266 13.77C44.9266 13.9535 45.0736 14.0769 45.2112 14.0769C45.3739 14.0769 45.481 14.0077 45.5692 13.8445C45.6583 13.6797 45.8435 13.5234 46.1002 13.5234C46.5817 13.5234 46.9068 13.8588 46.9068 14.4143C46.9068 15.4145 45.8843 16.2281 44.628 16.2281C41.4632 16.2281 38.7265 13.3655 36.2609 7.47799C36.2904 7.45553 39.1625 5.21176 39.1625 5.21176C40.1152 4.49115 40.5802 4.41427 40.9591 4.38413L41.0202 4.17889H38.2098L38.1508 4.38277C38.6187 4.41021 38.8952 4.58926 38.8952 4.8339C38.8952 5.02402 38.7357 5.25341 38.4273 5.5037C38.4273 5.5037 34.9071 8.22287 34.418 8.60095C34.4586 8.46582 35.3024 5.63963 35.3024 5.63963C35.302 5.64076 35.3208 5.58498 35.3208 5.58498C35.5699 4.84982 35.7245 4.43696 36.7569 4.38289L36.8158 4.179H33.6356L33.5732 4.38424C34.0348 4.40513 34.3154 4.50323 34.4333 4.67483C34.557 4.8549 34.5466 5.14413 34.398 5.67316L32.7405 11.3438C32.5251 12.0511 32.086 12.4733 31.5657 12.4733C31.0913 12.4733 30.7765 12.179 30.4051 11.3872C30.4051 11.3872 29.1088 8.67772 28.9755 8.39876C30.2662 8.15039 31.7578 7.33868 31.7578 5.85221C31.7577 4.81053 31.0498 4.12583 29.3096 4.13181ZM29.0487 4.3366C30.5386 4.3366 30.8514 5.10146 30.8514 5.74258C30.8514 6.90686 30.3174 8.29456 27.7743 8.29456C27.7743 8.29456 26.7154 8.29456 26.655 8.29456C26.6734 8.23348 27.8143 4.41348 27.8231 4.38266C28.0124 4.36618 28.5742 4.3366 29.0487 4.3366Z" fill="var(--fill-0, #767676)"/>
</svg>
