<svg preserveAspectRatio="none" width="100%" height="100%" overflow="visible" style="display: block;" viewBox="0 0 26.8408 21.3764" fill="none" xmlns="http://www.w3.org/2000/svg">
<g id="Frame 582">
<g id="Group">
<path id="Subtract" fill-rule="evenodd" clip-rule="evenodd" d="M7.42581 0L0 21.3762V21.3764H26.8408V0H13.7195L9.93895 5.94528H13.4193L13.5459 7.84243H11.1404V8.72803H13.1662V10.6252H11.1404V12.902H9.11465V7.24156L4.79182 14.0396H5.94662L7.84575 17.2017V14.0396H9.49175V20.364H7.97232L5.69333 16.6961V20.364H4.17406V15.0111L0.126566 21.3762L10.3214 0H7.42581ZM4.40469 0L0 20.9965V0H4.40469ZM23.8013 9.23397L25.9536 12.902H23.8013L22.7884 11.1313L21.7754 12.902H19.6232L21.6489 9.36041L19.6232 5.94528H21.9022L22.7884 7.4631L23.548 5.94528H25.8267L23.8013 9.23397ZM15.6952 20.364L14.3025 14.0396H15.822L16.5815 17.708L17.3411 14.0396H18.7338L19.4933 17.708L20.2534 14.0396H21.6459L20.1265 20.364H18.7338L17.9742 16.6961L17.2147 20.364H15.6952ZM22.7855 18.0871C22.9119 18.7197 23.2919 18.9726 23.9248 18.9726C24.3048 18.9726 24.4315 18.7197 24.4315 18.4666C24.4315 18.1142 24.2471 18.0686 23.9214 17.9878C23.7794 17.9527 23.6106 17.9108 23.4185 17.8341C22.1525 17.4548 21.5194 16.949 21.5194 15.9368C21.5194 14.6717 22.4056 13.7866 23.9248 13.7866C24.9378 13.7866 25.6973 14.4191 26.0773 15.4308L24.6846 15.8105C24.4315 15.4308 24.1779 15.178 23.7984 15.178C23.4183 15.178 23.1652 15.4308 23.1652 15.6839C23.1652 15.9686 23.379 16.0398 23.7527 16.1643C23.8773 16.2058 24.0197 16.2532 24.1779 16.3164C24.811 16.4427 25.1909 16.5693 25.6973 16.949C25.9505 17.2016 26.2037 17.7078 26.2037 18.2138C26.2037 18.7197 25.9506 19.2255 25.6973 19.6051C25.1909 20.1111 24.5577 20.364 23.7982 20.364C22.4055 20.364 21.5192 19.7314 21.2659 18.4666L22.7855 18.0871ZM17.6061 10.8782L17.7328 7.96904C17.7328 7.5897 17.3528 7.33665 17.0996 7.33665C16.7199 7.33665 16.4668 7.5897 16.4668 7.96904V10.8782C16.4668 11.2577 16.7199 11.5106 17.0996 11.5106C17.3528 11.5106 17.6061 11.2577 17.6061 10.8782ZM13.5547 9.48702C13.5547 7.5897 15.0741 5.94528 17.0996 5.94528C18.9988 5.94528 20.6446 7.5897 20.6446 9.48702C20.6446 11.3843 18.9988 12.9022 17.0996 12.9022C15.0741 12.902 13.5547 11.3842 13.5547 9.48702ZM13.923 14.0396H9.87145V20.364H13.923V18.846H11.3907V17.8343H13.543V16.4429H11.3907V15.5578H13.923V14.0396Z" fill="var(--fill-0, #767676)"/>
</g>
</g>
</svg>
