<svg preserveAspectRatio="none" width="100%" height="100%" overflow="visible" style="display: block;" viewBox="0 0 37 18" fill="none" xmlns="http://www.w3.org/2000/svg">
<g id="Frame 583">
<path id="Vector" d="M16.9841 0.291508H17.51L17.5719 0.0440166H10.9515L10.8896 0.291508H11.8487C12.6839 0.291508 13.3646 0.879301 13.3646 2.02395C13.3646 2.67362 13.0861 3.5089 12.6221 4.5298L8.32191 14.0273L7.27007 1.68365C7.17726 0.724619 7.67224 0.291508 8.75502 0.291508H9.37375L9.43562 0.0440166H0.0928094L0 0.291508H0.587793C1.33027 0.291508 1.6087 0.755555 1.67057 1.62178L3.34114 17.585H7.27007L13.8595 3.63265C14.8804 1.5599 15.9323 0.291508 16.9841 0.291508ZM16.2107 17.6469C15.6229 17.6469 15.2517 17.4612 15.2517 16.4713C15.2517 15.2338 15.7157 12.7898 16.2107 10.5624C16.2726 11.5833 16.9841 12.6042 18.036 12.6042C18.2834 12.6042 18.5 12.5733 18.7166 12.5423C17.7266 16.7806 17.3554 17.6469 16.2107 17.6469ZM34.9582 9.26308C36.1957 9.26308 37 8.24218 37 7.06659C37 6.07663 36.2885 5.33415 35.2676 5.33415C33.4423 5.33415 32.5761 6.78816 31.0602 9.4487C30.7508 7.77813 29.9774 5.61258 28.0594 5.61258C25.8938 5.61258 23.388 8.70623 21.0987 10.6243C20.0468 11.5214 18.9022 12.0783 17.9741 12.0783C17.0151 12.0783 16.4582 11.1193 16.4582 9.41776C17.1388 6.63348 17.4791 5.92194 18.5309 5.92194C19.2425 5.92194 19.5518 6.32412 19.5518 7.1594C19.5518 8.05656 19.3662 9.54151 18.964 11.4286C19.985 11.1193 21.5318 9.81994 22.8311 8.4278C22.1505 6.78816 20.6656 5.67445 18.5619 5.67445C14.6329 5.67445 11.1681 9.20121 11.1681 13.1611C11.1681 15.8835 13.1171 17.9562 16.1488 17.9562C21.1605 17.9562 23.2642 13.6251 23.2642 10.5933C23.2642 10.1602 23.2333 9.85087 23.2023 9.4487C23.9758 8.61342 24.9657 7.80907 25.7701 7.80907C26.6982 7.80907 27.4406 10.1293 28.1522 13.6251C27.5025 14.3367 26.8528 15.6979 26.5435 15.9454C26.4197 14.7079 25.5845 13.9345 24.5017 13.9345C23.2642 13.9345 22.4289 15.1101 22.4289 16.1C22.4289 17.2138 23.2023 17.9562 24.2232 17.9562C26.3579 17.9562 26.9457 15.9454 28.2759 14.151C28.6781 16.0691 29.6371 17.9562 31.2768 17.9562C33.2258 17.9562 35.0201 16.2857 35.9482 15.1101L35.7625 14.8316C35.1748 15.4194 34.587 15.7907 33.9064 15.7907C32.6998 15.7907 31.8336 13.192 31.184 10.0365C31.5861 9.51057 32.2049 8.14937 32.638 7.65439C32.9164 8.21124 33.5351 9.26308 34.9582 9.26308Z" fill="var(--fill-0, #767676)"/>
</g>
</svg>
