<svg preserveAspectRatio="none" width="100%" height="100%" overflow="visible" style="display: block;" viewBox="0 0 42.2644 18.7421" fill="none" xmlns="http://www.w3.org/2000/svg">
<path id="path7" d="M19.4952 10.8964C18.1607 8.50612 16.3848 4.73049 15.4415 0.327732H11.0595C9.92696 0.327732 8.02708 0.575647 8.02708 2.22289C8.02708 2.8692 8.52896 3.56655 9.34025 3.56655C10.0765 3.56655 10.4687 3.06903 10.4687 2.71014C10.4687 2.48616 10.3462 2.24569 10.0768 2.24569C9.80596 2.24569 9.68495 2.47882 9.68495 2.71014C9.68495 2.99192 9.49898 3.18881 9.23248 3.18881C8.6953 3.18881 8.31971 2.77844 8.31971 2.19173C8.31971 1.1338 9.24164 0.597437 11.0593 0.597437H12.9178C14.0062 0.597437 14.4864 1.14972 14.2135 2.26466C12.3513 8.98378 8.62537 16.1644 3.753 16.1644C1.51117 16.1644 0.338304 14.8255 0.338304 13.5021C0.338304 12.545 0.97454 11.8298 1.54294 11.8298C1.91952 11.8298 2.05817 12.0854 2.19186 12.3323C2.31728 12.5643 2.4471 12.8037 2.77063 12.8037C2.99797 12.8037 3.23953 12.6357 3.23953 12.3245C3.23953 11.791 2.64885 11.3892 1.86525 11.3892C0.964392 11.3892 0 12.2383 0 13.5022C0 15.2366 1.57835 16.4955 3.75311 16.4955C6.36071 16.4955 8.79513 14.6208 10.9893 10.9232C13.0854 7.39027 14.2298 3.39958 14.5602 2.13957C16.4696 9.12817 22.1714 18.7421 27.9895 18.7421C29.5488 18.7421 30.6377 17.8535 30.6377 16.5818C30.6377 15.793 30.1688 15.1776 29.5704 15.1776C29.2111 15.1776 28.9789 15.3387 28.9789 15.5918C28.9789 15.8133 29.1781 15.9463 29.3711 15.9463C29.4697 15.9463 29.5466 15.9121 29.6211 15.8791C29.6891 15.8486 29.7539 15.82 29.8312 15.82C30.1465 15.82 30.3755 16.1603 30.3755 16.629C30.3755 17.6982 29.3915 18.4741 28.0355 18.4741C25.2465 18.4741 22.5136 16.1069 19.6804 11.2371C20.8416 7.39953 23.1755 0.974728 25.7791 0.974728C26.2546 0.974728 26.5504 1.09632 26.8114 1.20379C27.0168 1.28801 27.2107 1.36737 27.4527 1.36737C28.016 1.36737 28.1664 1.0069 28.1664 0.79342C28.1664 0.318813 27.7065 1.38697e-08 27.0226 1.38697e-08C23.2233 -0.000338668 20.9084 6.20206 19.4952 10.8964ZM39.5295 4.5064L39.4686 4.70825C40.181 4.75928 40.3942 5.14673 40.3942 5.46667C40.3942 5.64064 40.34 5.83888 40.2322 6.05959L37.2008 12.0064L36.744 5.56308C36.6948 4.8952 37.0488 4.71785 37.7529 4.71164L37.8139 4.5064H34.9252L34.8647 4.70825C35.58 4.76921 35.7985 5.0248 35.7985 5.32239C35.7985 5.46464 35.7614 5.60768 35.6583 5.82387C35.6581 5.82387 32.7021 11.9783 32.7021 11.9783L32.2425 5.57754C32.2064 4.84519 32.5652 4.73704 33.2264 4.71051L33.286 4.50628H30.3358L30.2739 4.71051C31.1052 4.76018 31.3604 5.00618 31.4193 5.78898L32.0042 13.1694H32.3629L35.9205 5.78108L36.5015 13.1694H36.8443L40.4723 6.08138C40.9568 5.14413 41.4975 4.75567 42.2049 4.71028L42.2644 4.5064H39.5295ZM29.6008 4.5064H23.9659L23.9063 4.70893C24.3667 4.74246 24.6549 4.83955 24.7756 5.0169C24.8935 5.19053 24.8935 5.45527 24.7741 5.87501L23.055 11.7346C22.8549 12.3959 22.3691 12.7593 21.6463 12.8055L21.5705 13.0223H28.7558L30.0016 10.5041L29.854 10.4394C28.8309 12.1048 27.3306 12.801 24.7043 12.801C24.7043 12.801 23.6908 12.801 23.6312 12.801C23.6489 12.7407 24.8348 8.70436 24.8449 8.67061C24.8786 8.67061 26.0398 8.67061 26.0398 8.67061C26.5217 8.67061 26.8429 8.78057 27.0224 9.00669C27.2283 9.26624 27.2546 9.70935 27.1172 10.3819L27.3006 10.3828L28.2951 6.99153L28.1086 6.99018C27.7576 7.93081 27.025 8.46503 26.0556 8.46503C26.0556 8.46503 24.9649 8.46503 24.9053 8.46503C24.9231 8.40474 26.0014 4.74494 26.0116 4.71152C26.0452 4.71152 27.13 4.71152 27.13 4.71152C28.5421 4.71152 29.4247 5.3452 29.7389 6.5526L29.8884 6.53036L29.6216 4.50628H29.6008V4.5064Z" fill="var(--fill-0, #767676)"/>
</svg>
