<svg preserveAspectRatio="none" width="100%" height="100%" overflow="visible" style="display: block;" viewBox="0 0 100 13" fill="none" xmlns="http://www.w3.org/2000/svg">
<g id="NYT Wirecutter_idRNAI-c0l_1 1" clip-path="url(#clip0_0_1649)">
<path id="Vector" d="M9.75 7.9569C9.57032 8.47118 9.28499 8.9414 8.91268 9.33677C8.54037 9.73213 8.08947 10.0437 7.58951 10.2512V7.9569L8.82407 6.82687L7.58951 5.7124V4.1341C8.09889 4.12364 8.58428 3.91382 8.94309 3.54901C9.30191 3.18419 9.50604 2.69296 9.51235 2.17912C9.51235 0.824952 8.23457 0.348659 7.50926 0.348659C7.31191 0.342972 7.11469 0.363911 6.92284 0.41092V0.47318C7.01852 0.47318 7.16049 0.457615 7.20679 0.457615C7.71296 0.457615 8.09259 0.697318 8.09259 1.15805C8.0896 1.25788 8.06645 1.35605 8.02456 1.44656C7.98267 1.53707 7.92293 1.61801 7.84898 1.68444C7.77503 1.75087 7.68842 1.8014 7.59446 1.83293C7.50049 1.86445 7.40114 1.87633 7.30247 1.86782C6.0679 1.86782 4.58642 0.846743 2.98148 0.846743C1.56173 0.846743 0.583333 1.91451 0.583333 2.99785C0.583333 4.08118 1.20062 4.41427 1.84568 4.65398V4.5886C1.73071 4.51422 1.63787 4.40983 1.57701 4.2865C1.51614 4.16318 1.48953 4.02553 1.5 3.88817C1.50606 3.7615 1.53764 3.6374 1.5928 3.52344C1.64797 3.40948 1.72556 3.30805 1.82087 3.22533C1.91617 3.1426 2.02717 3.08032 2.14712 3.04228C2.26706 3.00424 2.39343 2.99124 2.51852 3.00407C3.86111 3.00407 6.02469 4.1341 7.36728 4.1341H7.49383V5.72797L6.24383 6.82687L7.49383 7.9569V10.273C6.97659 10.4575 6.43131 10.5491 5.88272 10.5438C3.7963 10.5532 2.46914 9.27993 2.46914 7.15996C2.46516 6.65866 2.53378 6.15946 2.67284 5.67816L3.71605 5.21743V9.88697L5.83025 8.95307V4.16523L2.72222 5.56921C2.86765 5.14007 3.09614 4.74434 3.39444 4.405C3.69273 4.06565 4.05489 3.78945 4.45988 3.59243V3.54574C2.36111 4.00647 0.339506 5.60345 0.339506 7.98803C0.339506 10.7431 2.64506 12.6576 5.33025 12.6576C8.17284 12.6576 9.78086 10.7462 9.7963 7.96001L9.75 7.9569Z" fill="var(--fill-0, #767676)"/>
<path id="Vector_2" d="M37.7778 10.0364V6.53736H37.1451V4.45785H41.358V5.63769C42.037 4.90613 42.7963 4.28353 43.8549 4.28353C44.0022 4.28094 44.1495 4.28613 44.2963 4.29909V6.94516C43.7294 6.91251 43.1607 6.95543 42.6049 7.0728C42.3888 7.11768 42.1837 7.20582 42.0019 7.332C41.82 7.45819 41.6651 7.61987 41.5463 7.80747C41.4043 8.0783 41.358 8.39583 41.358 9.27371V10.0364H42.2099V12.1097H37.1451V10.0364H37.7778Z" fill="var(--fill-0, #767676)"/>
<path id="Vector_3" d="M48.9969 12.2684C47.858 12.2684 46.5926 12.0287 45.7099 11.2318C45.2897 10.8612 44.9546 10.4027 44.7281 9.8882C44.5016 9.37369 44.389 8.81553 44.3982 8.25263C44.3982 5.76221 46.3735 4.29909 48.7191 4.29909C51.2778 4.29909 52.9691 6.1171 52.9691 8.3149C52.9691 8.57016 52.9537 8.80987 52.9383 9.06514H47.9846C48.0803 9.95857 48.5525 10.357 49.2809 10.357C49.5184 10.3557 49.7517 10.2936 49.959 10.1765C50.1663 10.0595 50.3408 9.8913 50.4661 9.68774H52.9352C52.4259 11.4404 50.8303 12.2684 48.9969 12.2684ZM47.9691 7.8853H49.821V7.6954C49.821 7.04167 49.6636 6.37237 48.8951 6.37237C48.7073 6.36595 48.5226 6.42143 48.3688 6.53041C48.2151 6.63938 48.1008 6.79591 48.0432 6.97629C47.9626 7.272 47.9375 7.58029 47.9691 7.8853Z" fill="var(--fill-0, #767676)"/>
<path id="Vector_4" d="M56.8981 4.29909C57.7037 4.29909 58.3519 4.4921 58.75 4.95283V4.45785H61.0247V7.44013H58.75C58.75 6.7397 58.4414 6.37237 57.9907 6.37237C57.4228 6.37237 57.0432 6.99497 57.0432 7.86973C57.0432 9.3204 57.9444 10.0208 59.2037 10.0208C59.8253 10.0145 60.4427 9.91808 61.037 9.73444V11.7268C60.1042 12.1067 59.1045 12.291 58.0988 12.2684C57.1859 12.3143 56.2781 12.1054 55.4753 11.6645C54.8557 11.2925 54.345 10.7614 53.9953 10.1254C53.6456 9.48937 53.4693 8.77118 53.4846 8.04406C53.4846 5.87739 54.9383 4.29909 56.8981 4.29909Z" fill="var(--fill-0, #767676)"/>
<path id="Vector_5" d="M64.9568 12.2684C63.2654 12.2684 62.2222 11.2816 62.2222 9.68774V6.53736H61.5586V4.45785H65.7932V9.04957C65.7932 9.68774 66.0617 10.0364 66.5988 10.0364C67.0741 10.0364 67.358 9.68774 67.358 9.04957V6.53736H66.6481V4.45785H70.929V10.0364H71.5617V12.1097H67.358V11.2069C66.7901 11.6645 65.9198 12.2684 64.9568 12.2684Z" fill="var(--fill-0, #767676)"/>
<path id="Vector_6" d="M71.7222 6.53736V4.45785H72.4352V2.06705H76.0062V4.45785H77.0648V6.53736H76.0062V10.0364H77.0648V12.1097H72.4352V6.53736H71.7222Z" fill="var(--fill-0, #767676)"/>
<path id="Vector_7" d="M77.5216 6.53736V4.45785H78.2346V2.06705H81.8056V4.45785H82.8642V6.53736H81.8056V10.0364H82.8642V12.1097H78.2346V6.53736H77.5216Z" fill="var(--fill-0, #767676)"/>
<path id="Vector_8" d="M87.963 12.2684C86.8272 12.2684 85.5617 12.0287 84.6759 11.2318C84.2564 10.8607 83.9218 10.4021 83.6953 9.88769C83.4688 9.3733 83.3558 8.81541 83.3642 8.25263C83.3642 5.76221 85.3395 4.29909 87.6852 4.29909C90.2469 4.29909 91.9383 6.1171 91.9383 8.3149C91.9383 8.57016 91.9228 8.80987 91.9074 9.06514H86.9568C87.0494 9.95857 87.5247 10.357 88.2531 10.357C88.4905 10.3551 88.7236 10.2928 88.9308 10.1758C89.138 10.0588 89.3125 9.8909 89.4383 9.68774H91.9074C91.3981 11.4404 89.8148 12.2684 87.963 12.2684ZM86.9383 7.8853H88.7901V7.6954C88.7901 7.04167 88.6327 6.37237 87.8642 6.37237C87.676 6.36577 87.4908 6.42114 87.3366 6.53009C87.1823 6.63904 87.0674 6.79566 87.0093 6.97629C86.9314 7.2725 86.9083 7.58066 86.9414 7.8853H86.9383Z" fill="var(--fill-0, #767676)"/>
<path id="Vector_9" d="M93.1512 10.0364V6.53736H92.5185V4.45785H96.7222V5.63769C97.4012 4.90613 98.1605 4.28353 99.2191 4.28353C99.3664 4.28094 99.5138 4.28613 99.6605 4.29909V6.94516C99.0936 6.91251 98.5249 6.95543 97.9692 7.0728C97.7535 7.11806 97.549 7.20638 97.3678 7.33255C97.1865 7.45872 97.0321 7.6202 96.9136 7.80747C96.7716 8.0783 96.7253 8.39583 96.7253 9.27371V10.0364H97.5772V12.1097H92.5185V10.0364H93.1512Z" fill="var(--fill-0, #767676)"/>
<path id="Vector_10" d="M32.4074 10.0488V6.56537H31.7901V4.50766H35.9661V10.0488H36.6235V12.1066H31.7716V10.0488H32.4074ZM35.9568 1.02107V3.72629H32.4074V1.00862L35.9568 1.02107Z" fill="var(--fill-0, #767676)"/>
<path id="Vector_11" d="M16.142 3.24689V1.00862H21.3704V3.24689H20.6482L21.7531 7.73276L23.4568 1.00862H26.179L27.8519 7.95067H27.8796L29.0864 3.24689H27.9568V1.00862H31.7531V3.24689H31.321L28.8519 12.1097H25.3704L24.1358 7.09459H24.1049L22.8395 12.1097H19.3333L16.8426 3.24689H16.142Z" fill="var(--fill-0, #767676)"/>
<path id="Vector_12" d="M12.9907 1.07088H12.7006V12.1346H12.9907V1.07088Z" fill="var(--fill-0, #767676)"/>
</g>
<defs>
<clipPath id="clip0_0_1649">
<rect width="100" height="13" fill="white"/>
</clipPath>
</defs>
</svg>
