<svg preserveAspectRatio="none" width="100%" height="100%" overflow="visible" style="display: block;" viewBox="0 0 99 15" fill="none" xmlns="http://www.w3.org/2000/svg">
<g id="Frame 587">
<path id="Star 1" d="M7.5 0L9.18386 5.18237H14.6329L10.2245 8.38525L11.9084 13.5676L7.5 10.3647L3.09161 13.5676L4.77547 8.38525L0.367076 5.18237H5.81614L7.5 0Z" fill="var(--fill-0, #042A21)"/>
<path id="Star 2" d="M28.5 0L30.1839 5.18237H35.6329L31.2245 8.38525L32.9084 13.5676L28.5 10.3647L24.0916 13.5676L25.7755 8.38525L21.3671 5.18237H26.8161L28.5 0Z" fill="var(--fill-0, #042A21)"/>
<path id="Star 3" d="M49.5 0L51.1839 5.18237H56.6329L52.2245 8.38525L53.9084 13.5676L49.5 10.3647L45.0916 13.5676L46.7755 8.38525L42.3671 5.18237H47.8161L49.5 0Z" fill="var(--fill-0, #042A21)"/>
<path id="Star 4" d="M70.5 0L72.1839 5.18237H77.6329L73.2245 8.38525L74.9084 13.5676L70.5 10.3647L66.0916 13.5676L67.7755 8.38525L63.3671 5.18237H68.8161L70.5 0Z" fill="var(--fill-0, #042A21)"/>
<path id="Star 5" d="M91.5 0L93.1839 5.18237H98.6329L94.2245 8.38525L95.9084 13.5676L91.5 10.3647L87.0916 13.5676L88.7755 8.38525L84.3671 5.18237H89.8161L91.5 0Z" fill="var(--fill-0, #042A21)"/>
</g>
</svg>
