<svg preserveAspectRatio="none" width="100%" height="100%" overflow="visible" style="display: block;" viewBox="0 0 45.3183 41.0654" fill="none" xmlns="http://www.w3.org/2000/svg">
<path id="Vector 9776" d="M2.95582 1.13756C2.75546 0.333732 1.9414 -0.155476 1.13756 0.0448873C0.333732 0.245251 -0.155476 1.05931 0.0448873 1.86314L1.50035 1.50035L2.95582 1.13756ZM44.879 31.0801C45.4648 30.4943 45.4648 29.5446 44.879 28.9588L35.333 19.4128C34.7473 18.827 33.7975 18.827 33.2117 19.4128C32.6259 19.9986 32.6259 20.9484 33.2117 21.5341L41.697 30.0194L33.2117 38.5047C32.6259 39.0905 32.6259 40.0402 33.2117 40.626C33.7975 41.2118 34.7473 41.2118 35.333 40.626L44.879 31.0801ZM1.50035 1.50035L0.0448873 1.86314C1.39547 7.28149 4.6567 14.7036 11.4655 20.7794C18.3017 26.8796 28.6001 31.5194 43.8183 31.5194V30.0194V28.5194C29.2571 28.5194 19.6928 24.1002 13.463 18.541C7.20581 12.9575 4.19778 6.12013 2.95582 1.13756L1.50035 1.50035Z" fill="var(--stroke-0, #E9DCD3)"/>
</svg>
