<svg width="53" height="76" viewBox="0 0 53 76" fill="none" xmlns="http://www.w3.org/2000/svg">
<path d="M2.0189 2.0189C2.0189 2.05844 2.0189 3.95821 2.18864 7.09652C2.40345 11.0682 8.74191 13.4883 14.6258 14.8966C19.443 16.0495 23.0341 15.0539 24.1173 14.6245C26.3407 13.7433 27.9851 10.9734 29.3017 8.26755C29.8595 7.12122 29.6529 5.83327 29.2325 4.79406C28.3221 2.54381 23.1032 3.2708 20.0167 4.03981C17.3132 4.71341 16.7597 8.5096 15.6879 13.8833C15.0402 17.1304 15.6855 19.5724 16.1363 20.7961C17.2462 23.8081 21.6507 25.0832 28.0022 26.4113C32.5019 27.3522 35.7913 26.5252 37.2943 26.04C41.403 24.7134 44.5808 19.1987 46.2993 15.4444C46.6474 14.684 46.5141 13.7431 46.3372 13.0719C46.1602 12.4007 45.7648 11.9685 45.042 11.7237C43.3518 11.1512 41.666 11.5962 40.1257 12.5026C34.8377 15.6141 32.7526 20.3425 31.1791 24.0738C28.1697 31.21 29.8889 39.8618 31.3979 44.0148C32.3487 46.6317 35.3883 47.8639 39.5124 49.1033C41.0878 49.5768 43.0819 49.4975 45.3801 49.2717C47.2007 49.0928 48.5634 47.5819 49.7545 46.0792C50.7322 44.8458 50.9313 43.4549 50.9792 42.2302C51.0034 41.6124 50.7879 41.0042 50.4273 40.5332C48.9108 38.552 44.111 38.9223 40.7404 39.992C36.9728 41.1878 34.6292 47.7941 33.3433 55.0459C31.6781 64.4375 34.1041 67.6155 35.8469 71.0227C36.2994 71.7316 36.7043 72.2285 37.1181 72.6525C37.5319 73.0766 37.9422 73.4126 38.365 73.7589" stroke="#E7C6AC" stroke-width="4" stroke-linecap="round"/>
</svg>
