<svg width="134" height="80" viewBox="0 0 134 80" fill="none" xmlns="http://www.w3.org/2000/svg">
<path d="M5.71722 2.00942C4.33366 4.04747 3.03205 6.56785 2.50244 8.77555C2.04877 10.6667 4.09135 12.5955 5.98023 14.1531C8.60807 16.32 11.5815 14.9841 12.5256 14.5409C13.4509 14.1065 13.5823 12.8318 13.6696 11.8957C13.7115 11.446 13.5923 11.0399 13.3492 10.6946C12.8336 9.96224 11.8899 9.61099 11.1034 9.33283C9.63055 8.81187 7.72981 9.87232 4.96776 11.6685C2.47956 13.2866 1.98194 17.5049 2.0102 20.603C2.04156 24.0401 5.615 28.4503 8.89471 32.2162C11.3826 35.073 16.7794 34.4419 22.1744 34.1757C23.2495 34.1226 23.6692 33.9294 24.0136 33.6941C24.358 33.4587 24.6091 33.1194 24.7054 32.6554C25.2272 30.1417 23.5869 27.5987 22.5434 26.5346C20.7795 24.7358 16.1952 25.4276 14.4669 26.0761C12.5553 26.7934 10.9919 30.9184 9.42596 35.1376C8.51508 37.5918 9.30668 40.4666 10.8544 44.5438C12.0974 47.8184 14.7458 49.6276 19.3259 52.8798C22.5015 55.1348 26.4686 55.8451 29.7113 55.3211C33.0813 54.7765 34.9247 52.4079 35.5286 51.7869C36.2024 51.094 36.4409 50.1201 36.507 49.2419C36.5738 48.3539 36.1053 47.3983 35.6521 46.5084C35.2707 45.7596 34.1035 45.4998 32.8648 45.3847C31.0059 45.2119 28.6259 46.718 26.8201 47.9785C25.0436 49.2185 24.671 52.1362 24.676 54.8837C24.6825 58.4074 26.5854 62.7054 29.2338 65.6295C31.8069 68.4706 35.2495 70.2643 43.0963 72.6442C48.3742 74.2449 52.5225 74.0282 54.4925 73.7284C59.8318 72.9159 63.8311 67.8099 65.2134 64.5723C65.7864 63.2302 65.6014 62.0566 65.3738 61.1126C65.162 60.2346 64.5912 59.5163 64.0612 58.8409C63.5506 58.1903 62.6857 57.9092 61.6411 57.8951C60.5099 57.8799 59.5102 58.4514 58.7679 59.053C57.2214 60.3065 57.2021 63.2872 57.3834 66.5331C57.515 68.8874 58.8909 70.7075 60.2634 72.2825C62.0413 74.3227 64.7311 75.3502 69.338 76.5661C78.7871 79.06 84.1595 77.6427 86.2183 77.0557C88.9766 76.2691 93.4171 71.0052 97.9548 65.054C101.19 60.8105 100.561 56.6359 100.315 54.3137C100.257 53.7652 100.062 53.35 99.7606 53.05C98.5289 51.8251 96.2196 52.3747 94.426 52.9791C93.4898 53.2946 93.1989 54.4536 92.9859 55.2627C92.4815 57.1786 93.824 59.8985 94.7454 61.4917C95.7992 63.3137 98.9801 64.5752 102.801 65.6935C110.751 68.0202 113.926 66.3803 116.596 65.0845C120.428 63.2251 123.787 58.3261 124.816 55.7249C127.025 50.1452 125.171 42.9742 124.296 41.1112C124.114 40.7233 123.652 40.5601 123.191 40.4647C122.2 40.2594 121.264 40.6616 120.557 41.171C119.722 41.7719 119.316 42.682 119.021 43.5671C118.604 44.8168 118.706 46.4591 118.955 48.0133C119.267 49.9562 120.94 51.6316 122.915 53.033C124.728 54.3185 126.847 55.2205 129.068 55.2423C129.415 55.2456 129.716 55.2346 129.973 55.221C130.396 55.1809 130.776 55.1064 131.747 54.62" stroke="#E0C9B4" stroke-width="4" stroke-linecap="round"/>
</svg>
