<svg width="90" height="66" viewBox="0 0 90 66" fill="none" xmlns="http://www.w3.org/2000/svg">
<path d="M2.01154 2.01177C4.97596 3.17762 11.8491 6.47525 15.7526 11.943C19.5471 17.2579 19.0397 23.3341 18.0517 27.9367C17.1659 32.0633 15.6626 34.3204 14.3807 35.9273C13.5118 37.0164 11.9321 37.6878 10.5542 37.9088C9.12345 38.1384 6.68644 38.0271 5.40048 36.4186C4.40442 35.1727 4.3387 32.4457 6.81349 29.0471C8.91968 26.1548 13.8003 24.0659 21.9954 22.2725C27.0117 21.1747 35.4271 24.4946 39.5932 28.7343C44.0353 33.2547 44.1719 38.666 44.5274 41.8937C44.8804 45.0994 43.7936 47.0932 42.8779 48.6498C42.0877 49.9929 40.2079 50.6606 39.3142 50.5906C37.2917 50.4323 36.3599 48.5705 36.2182 47.6845C36.0765 46.7985 36.4828 44.728 37.4486 43.6006C40.078 40.5312 44.4294 39.6195 47.8017 39.2805C53.0629 38.7518 59.2951 43.0036 62.274 46.1178C65.4131 49.3997 66.3276 51.3509 65.8789 57.3592C65.7574 58.9858 64.6627 61.6426 63.9256 62.3258C62.5558 63.5955 60.2416 64.5779 58.3868 63.5783C57.2913 62.9879 54.9625 62.3346 54.3876 56.5187C54.1193 53.8052 57.2335 46.0955 60.3205 41.433C62.6286 37.947 72.2327 35.089 77.4441 33.1016C79.634 32.5023 82.2523 31.5735 84.6781 30.4381C85.7506 29.8977 86.5013 29.43 87.8086 28.0186" stroke="#F1D8C4" stroke-width="4" stroke-linecap="round"/>
</svg>
