<svg width="293" height="86" viewBox="0 0 293 86" fill="none" xmlns="http://www.w3.org/2000/svg">
<path d="M43.763 41.6668C43.763 38.7213 41.3752 36.3335 38.4297 36.3335C35.4842 36.3335 33.0964 38.7213 33.0964 41.6668C33.0964 44.6123 35.4842 47.0002 38.4297 47.0002C41.3752 47.0002 43.763 44.6123 43.763 41.6668Z" stroke="#042A21" stroke-width="2" stroke-linecap="round" stroke-linejoin="round"/>
<path d="M41.1478 37.077C41.1139 36.834 41.0964 36.5857 41.0964 36.3333C41.0964 33.3878 43.4842 31 46.4297 31C49.3752 31 51.763 33.3878 51.763 36.3333C51.763 39.2789 49.3752 41.6667 46.4297 41.6667C45.437 41.6667 44.5076 41.3954 43.7116 40.923" stroke="#042A21" stroke-width="2" stroke-linecap="round" stroke-linejoin="round"/>
<path d="M46.4297 55C46.4297 50.5817 42.848 47 38.4297 47C34.0114 47 30.4297 50.5817 30.4297 55" stroke="#042A21" stroke-width="2" stroke-linecap="round" stroke-linejoin="round"/>
<path d="M54.4297 49.6665C54.4297 45.2482 50.848 41.6665 46.4297 41.6665" stroke="#042A21" stroke-width="2" stroke-linecap="round" stroke-linejoin="round"/>
<path d="M78.3117 25.22V27.056H72.3357V30.602H78.0057V32.438H72.3357V38H70.0137V25.22H78.3117ZM82.5444 38.216C80.6904 38.216 79.4664 37.154 79.4664 35.552C79.4664 34.688 79.8444 33.968 80.5644 33.518C81.2124 33.14 82.0764 32.906 83.4984 32.708L85.4064 32.474V32.24C85.4064 30.89 84.8844 30.314 83.7324 30.314C82.6704 30.314 82.0404 30.872 81.9684 31.898H79.7544C79.8984 29.972 81.4104 28.784 83.7324 28.784C86.3964 28.784 87.5844 29.918 87.5844 32.528V35.21C87.5844 36.434 87.6744 37.37 87.8544 38H85.6944C85.6224 37.55 85.5684 37.01 85.5504 36.452C85.1184 37.55 83.9844 38.216 82.5444 38.216ZM83.2284 36.686C84.5604 36.686 85.4604 35.732 85.4604 34.31V33.734L83.4264 34.04C82.2384 34.238 81.6984 34.67 81.6984 35.444C81.6984 36.2 82.2744 36.686 83.2284 36.686ZM90.2427 38V29H92.2947V30.584C92.8347 29.378 93.6987 28.784 94.9587 28.784C96.2187 28.784 97.0827 29.396 97.5147 30.602C98.1267 29.378 99.0627 28.784 100.323 28.784C102.051 28.784 103.077 30.008 103.077 32.114V38H100.917V32.456C100.917 31.142 100.431 30.512 99.4407 30.512C98.3427 30.512 97.7307 31.304 97.7307 32.744V38H95.5707V32.402C95.5707 31.16 95.0667 30.512 94.1127 30.512C93.0327 30.512 92.4027 31.358 92.4027 32.798V38H90.2427ZM107.979 27.506H105.639V25.256H107.979V27.506ZM107.889 38H105.729V29H107.889V38ZM110.756 24.95H112.916V38H110.756V24.95ZM116.108 41.6C115.838 41.6 115.496 41.564 115.118 41.51V39.8C115.442 39.872 115.658 39.872 115.874 39.872C116.936 39.872 117.494 39.44 117.836 38.45L118.016 37.91L114.506 29H116.882L118.844 34.886C118.988 35.3 119.06 35.642 119.096 35.948H119.132C119.186 35.678 119.276 35.354 119.402 34.886L121.202 29H123.434L120.068 38.504C119.258 40.79 118.034 41.6 116.108 41.6ZM134.82 38.306C130.806 38.306 128.844 35.462 128.844 31.592C128.844 27.614 131.022 24.914 134.856 24.914C138.042 24.914 139.86 26.732 140.202 29.45L137.826 29.792C137.61 27.974 136.548 26.822 134.784 26.822C132.534 26.822 131.238 28.712 131.238 31.574C131.238 34.364 132.498 36.362 134.838 36.362C136.476 36.362 137.592 35.264 137.916 33.464L140.22 33.932C139.68 36.488 137.934 38.306 134.82 38.306ZM144.648 38.216C142.794 38.216 141.57 37.154 141.57 35.552C141.57 34.688 141.948 33.968 142.668 33.518C143.316 33.14 144.18 32.906 145.602 32.708L147.51 32.474V32.24C147.51 30.89 146.988 30.314 145.836 30.314C144.774 30.314 144.144 30.872 144.072 31.898H141.858C142.002 29.972 143.514 28.784 145.836 28.784C148.5 28.784 149.688 29.918 149.688 32.528V35.21C149.688 36.434 149.778 37.37 149.958 38H147.798C147.726 37.55 147.672 37.01 147.654 36.452C147.222 37.55 146.088 38.216 144.648 38.216ZM145.332 36.686C146.664 36.686 147.564 35.732 147.564 34.31V33.734L145.53 34.04C144.342 34.238 143.802 34.67 143.802 35.444C143.802 36.2 144.378 36.686 145.332 36.686ZM152.346 24.95H154.506V38H152.346V24.95ZM157.374 24.95H159.534V38H157.374V24.95ZM165.695 38.216C163.643 38.216 162.113 37.352 161.555 35.768L163.157 35.048C163.571 36.056 164.471 36.632 165.749 36.632C166.847 36.632 167.423 36.164 167.423 35.516C167.423 34.868 167.027 34.616 166.145 34.472L164.543 34.184C162.851 33.878 161.969 32.996 161.969 31.556C161.969 29.936 163.355 28.784 165.641 28.784C167.549 28.784 169.007 29.558 169.439 30.854L167.927 31.664C167.495 30.854 166.703 30.35 165.515 30.35C164.507 30.35 163.949 30.728 163.949 31.43C163.949 32.042 164.345 32.312 165.137 32.456L166.901 32.78C168.647 33.086 169.385 33.95 169.385 35.372C169.385 37.064 168.053 38.216 165.695 38.216ZM176.274 24.95H177.804V38H176.274V24.95ZM188.148 32.87V33.95H181.758C181.776 35.714 182.838 36.866 184.44 36.866C185.592 36.866 186.438 36.254 186.834 35.156L188.094 35.714C187.464 37.352 186.15 38.216 184.332 38.216C181.758 38.216 180.228 36.578 180.228 33.608C180.228 30.602 181.74 28.784 184.314 28.784C186.744 28.784 188.148 30.17 188.148 32.87ZM181.758 32.708H186.6V32.51C186.6 30.854 185.754 29.99 184.278 29.99C182.694 29.99 181.794 31.016 181.758 32.708ZM190.995 30.26H189.321V29H190.995V26.642L192.525 25.994V29H194.775V30.26H192.525V35.246C192.525 36.272 192.921 36.722 193.839 36.722C194.235 36.722 194.469 36.668 194.775 36.596V38C194.379 38.108 194.019 38.162 193.443 38.162C191.499 38.162 190.995 36.974 190.995 35.3V30.26ZM201.728 41.6C201.458 41.6 201.188 41.582 200.9 41.528V40.178C201.134 40.214 201.35 40.214 201.548 40.214C202.628 40.214 203.186 39.728 203.6 38.558L203.834 37.892L200.252 29H201.962L204.266 35.264C204.428 35.714 204.518 36.074 204.572 36.326H204.608C204.662 36.074 204.77 35.714 204.914 35.264L207.002 29H208.658L205.148 38.576C204.32 40.844 203.24 41.6 201.728 41.6ZM213.76 38.216C211.222 38.216 209.566 36.434 209.566 33.5C209.566 30.566 211.222 28.784 213.76 28.784C216.298 28.784 217.954 30.566 217.954 33.5C217.954 36.434 216.298 38.216 213.76 38.216ZM213.76 36.884C215.38 36.884 216.334 35.732 216.334 33.5C216.334 31.268 215.38 30.116 213.76 30.116C212.14 30.116 211.186 31.268 211.186 33.5C211.186 35.732 212.14 36.884 213.76 36.884ZM223.186 38.216C220.918 38.216 220.108 36.848 220.108 34.742V29H221.638V34.562C221.638 36.074 222.286 36.902 223.474 36.902C224.914 36.902 225.886 35.678 225.886 33.842V29H227.416V38H225.976V36.308C225.562 37.406 224.446 38.216 223.186 38.216ZM73.1097 61.216C70.9857 61.216 69.5457 60.226 69.2397 58.444L70.7877 58.174C71.0037 59.308 71.8497 59.956 73.1637 59.956C74.3697 59.956 75.0357 59.362 75.0357 58.588C75.0357 57.796 74.5497 57.472 73.7397 57.328L71.9757 57.004C70.4457 56.716 69.5817 55.852 69.5817 54.484C69.5817 52.936 70.8777 51.784 73.0017 51.784C75.0177 51.784 76.3857 52.702 76.5657 54.214L75.0537 54.556C74.8557 53.656 74.1537 53.026 72.9297 53.026C71.7777 53.026 71.0757 53.53 71.0757 54.412C71.0757 55.168 71.5797 55.528 72.4617 55.69L74.2077 56.014C75.8277 56.32 76.5477 57.148 76.5477 58.462C76.5477 60.082 75.3057 61.216 73.1097 61.216ZM80.6148 61H79.0848V47.95H80.6148V53.692C81.1548 52.432 82.1628 51.784 83.5668 51.784C85.5108 51.784 86.5368 53.026 86.5368 55.402V61H85.0068V55.51C85.0068 53.926 84.3408 53.098 83.0448 53.098C81.4968 53.098 80.6148 54.268 80.6148 56.302V61ZM91.7407 61.216C89.9047 61.216 88.6987 60.172 88.6987 58.57C88.6987 57.67 89.1487 56.896 89.9587 56.446C90.6427 56.104 91.5067 55.888 92.9827 55.708L94.6567 55.51V55.366C94.6567 53.71 94.0627 53.044 92.6767 53.044C91.4527 53.044 90.6967 53.692 90.6247 54.826H88.9867C89.1127 52.99 90.5527 51.784 92.6587 51.784C95.1247 51.784 96.2047 52.9 96.2047 55.528V57.958C96.2047 59.344 96.2947 60.298 96.5107 61H94.9087C94.8367 60.532 94.7827 59.938 94.7647 59.362C94.3507 60.514 93.2167 61.216 91.7407 61.216ZM92.0827 59.956C93.6487 59.956 94.6747 58.822 94.6747 57.076V56.626L92.2267 56.986C90.8947 57.184 90.3187 57.652 90.3187 58.534C90.3187 59.416 90.9847 59.956 92.0827 59.956ZM100.634 52V54.052C101.066 52.792 102.002 51.784 103.37 51.784C103.478 51.784 103.586 51.784 103.694 51.802V53.296H103.622C102.686 53.296 102.074 53.566 101.642 53.998C100.778 54.862 100.742 56.068 100.742 57.148V61H99.2118V52H100.634ZM112.703 55.87V56.95H106.313C106.331 58.714 107.393 59.866 108.995 59.866C110.147 59.866 110.993 59.254 111.389 58.156L112.649 58.714C112.019 60.352 110.705 61.216 108.887 61.216C106.313 61.216 104.783 59.578 104.783 56.608C104.783 53.602 106.295 51.784 108.869 51.784C111.299 51.784 112.703 53.17 112.703 55.87ZM106.313 55.708H111.155V55.51C111.155 53.854 110.309 52.99 108.833 52.99C107.249 52.99 106.349 54.016 106.313 55.708ZM124.901 53.26H123.227V52H124.901V49.642L126.431 48.994V52H128.681V53.26H126.431V58.246C126.431 59.272 126.827 59.722 127.745 59.722C128.141 59.722 128.375 59.668 128.681 59.596V61C128.285 61.108 127.925 61.162 127.349 61.162C125.405 61.162 124.901 59.974 124.901 58.3V53.26ZM134.219 61.216C131.681 61.216 130.025 59.434 130.025 56.5C130.025 53.566 131.681 51.784 134.219 51.784C136.757 51.784 138.413 53.566 138.413 56.5C138.413 59.434 136.757 61.216 134.219 61.216ZM134.219 59.884C135.839 59.884 136.793 58.732 136.793 56.5C136.793 54.268 135.839 53.116 134.219 53.116C132.599 53.116 131.645 54.268 131.645 56.5C131.645 58.732 132.599 59.884 134.219 59.884ZM147.663 51.856C146.979 51.856 146.529 52.126 146.313 52.702C146.853 53.242 147.141 53.98 147.141 54.826C147.141 56.572 145.899 57.904 143.811 57.904C143.145 57.904 142.569 57.76 142.083 57.526C141.705 57.688 141.435 57.994 141.435 58.408C141.435 58.912 141.813 59.326 142.929 59.326H145.125C147.159 59.326 148.185 60.244 148.185 61.864C148.185 63.556 146.853 64.726 143.721 64.726C140.553 64.726 139.671 63.538 139.671 62.26C139.671 61.414 140.175 60.694 141.129 60.388C140.373 60.046 140.085 59.47 140.085 58.822C140.085 57.922 140.607 57.31 141.363 57.022C140.787 56.464 140.481 55.708 140.481 54.826C140.481 53.08 141.723 51.784 143.811 51.784C144.495 51.784 145.071 51.928 145.575 52.162C145.845 51.244 146.511 50.524 147.717 50.524C147.915 50.524 148.113 50.542 148.311 50.596V51.928C148.131 51.892 147.915 51.856 147.663 51.856ZM143.811 56.734C144.963 56.734 145.701 55.942 145.701 54.844C145.701 53.746 144.963 52.954 143.811 52.954C142.659 52.954 141.921 53.728 141.921 54.826C141.921 55.924 142.659 56.734 143.811 56.734ZM144.783 60.676H142.875C142.605 60.676 142.353 60.658 142.119 60.64C141.471 60.928 141.165 61.45 141.165 61.99C141.165 63.106 142.281 63.466 143.901 63.466C146.097 63.466 146.655 62.782 146.655 61.972C146.655 61.126 146.025 60.676 144.783 60.676ZM157.228 55.87V56.95H150.838C150.856 58.714 151.918 59.866 153.52 59.866C154.672 59.866 155.518 59.254 155.914 58.156L157.174 58.714C156.544 60.352 155.23 61.216 153.412 61.216C150.838 61.216 149.308 59.578 149.308 56.608C149.308 53.602 150.82 51.784 153.394 51.784C155.824 51.784 157.228 53.17 157.228 55.87ZM150.838 55.708H155.68V55.51C155.68 53.854 154.834 52.99 153.358 52.99C151.774 52.99 150.874 54.016 150.838 55.708ZM160.075 53.26H158.401V52H160.075V49.642L161.605 48.994V52H163.855V53.26H161.605V58.246C161.605 59.272 162.001 59.722 162.919 59.722C163.315 59.722 163.549 59.668 163.855 59.596V61C163.459 61.108 163.099 61.162 162.523 61.162C160.579 61.162 160.075 59.974 160.075 58.3V53.26ZM167.627 61H166.097V47.95H167.627V53.692C168.167 52.432 169.175 51.784 170.579 51.784C172.523 51.784 173.549 53.026 173.549 55.402V61H172.019V55.51C172.019 53.926 171.353 53.098 170.057 53.098C168.509 53.098 167.627 54.268 167.627 56.302V61ZM183.63 55.87V56.95H177.24C177.258 58.714 178.32 59.866 179.922 59.866C181.074 59.866 181.92 59.254 182.316 58.156L183.576 58.714C182.946 60.352 181.632 61.216 179.814 61.216C177.24 61.216 175.71 59.578 175.71 56.608C175.71 53.602 177.222 51.784 179.796 51.784C182.226 51.784 183.63 53.17 183.63 55.87ZM177.24 55.708H182.082V55.51C182.082 53.854 181.236 52.99 179.76 52.99C178.176 52.99 177.276 54.016 177.24 55.708ZM187.575 52V54.052C188.007 52.792 188.943 51.784 190.311 51.784C190.419 51.784 190.527 51.784 190.635 51.802V53.296H190.563C189.627 53.296 189.015 53.566 188.583 53.998C187.719 54.862 187.683 56.068 187.683 57.148V61H186.153V52H187.575Z" fill="#042A21"/>
</svg>
