<svg width="293" height="86" viewBox="0 0 293 86" fill="none" xmlns="http://www.w3.org/2000/svg">
<path d="M32.9788 41.0551L36.4994 37.5345C37.2176 36.8164 37.4661 35.7552 37.1756 34.782C36.9485 34.021 36.6926 33.1062 36.5225 32.3239C36.3652 31.6004 35.7303 31 34.9898 31H32.9788C31.498 31 30.2818 32.2051 30.4443 33.6771C31.6791 44.8661 40.5636 53.7505 51.7526 54.9854C53.2246 55.1479 54.4297 53.9317 54.4297 52.4509V50.4398C54.4297 49.6994 53.8269 49.092 53.0984 48.9595C52.2947 48.8133 51.4445 48.5738 50.7331 48.347C49.7112 48.0213 48.5752 48.2502 47.8168 49.0087L44.3746 52.4509" stroke="#042A21" stroke-width="2" stroke-linecap="round" stroke-linejoin="round"/>
<path d="M49.7839 30.1108L50.1278 31.0402C50.5787 32.2589 50.8042 32.8682 51.2487 33.3127C51.6932 33.7572 52.3025 33.9827 53.5212 34.4336L54.4505 34.7775L53.5212 35.1214C52.3025 35.5723 51.6932 35.7978 51.2487 36.2423C50.8042 36.6868 50.5787 37.2961 50.1278 38.5148L49.7839 39.4442L49.44 38.5148C48.989 37.2961 48.7635 36.6868 48.319 36.2423C47.8745 35.7978 47.2652 35.5723 46.0466 35.1214L45.1172 34.7775L46.0466 34.4336C47.2652 33.9827 47.8745 33.7572 48.319 33.3127C48.7635 32.8682 48.989 32.2589 49.44 31.0402L49.7839 30.1108Z" stroke="#042A21" stroke-width="2" stroke-linejoin="round"/>
<path d="M72.0477 38H70.0137V25.22H73.2537L76.1517 34.112C76.3497 34.742 76.4217 35.012 76.4757 35.48H76.5117C76.5657 35.012 76.6377 34.724 76.8357 34.094L79.6977 25.22H82.9557V38H80.8317V28.676C80.8317 28.172 80.8497 27.722 80.9037 27.272H80.8497C80.8137 27.578 80.6517 28.244 80.5257 28.622L77.5017 38H75.4317L72.3717 28.622C72.2277 28.244 72.0837 27.578 72.0477 27.272H71.9757C72.0297 27.704 72.0477 28.154 72.0477 28.676V38ZM88.2573 38.216C86.4033 38.216 85.1793 37.154 85.1793 35.552C85.1793 34.688 85.5573 33.968 86.2773 33.518C86.9253 33.14 87.7893 32.906 89.2113 32.708L91.1193 32.474V32.24C91.1193 30.89 90.5973 30.314 89.4453 30.314C88.3833 30.314 87.7533 30.872 87.6813 31.898H85.4673C85.6113 29.972 87.1233 28.784 89.4453 28.784C92.1093 28.784 93.2973 29.918 93.2973 32.528V35.21C93.2973 36.434 93.3873 37.37 93.5673 38H91.4073C91.3353 37.55 91.2813 37.01 91.2633 36.452C90.8313 37.55 89.6973 38.216 88.2573 38.216ZM88.9413 36.686C90.2733 36.686 91.1733 35.732 91.1733 34.31V33.734L89.1393 34.04C87.9513 34.238 87.4113 34.67 87.4113 35.444C87.4113 36.2 87.9873 36.686 88.9413 36.686ZM103.268 29.072C102.674 29.072 102.26 29.252 101.99 29.648C102.602 30.188 102.944 30.926 102.944 31.808C102.944 33.59 101.54 34.886 99.2358 34.886C98.5518 34.886 97.9398 34.76 97.4358 34.562C97.1658 34.706 96.9858 34.94 96.9858 35.246C96.9858 35.732 97.3638 36.074 98.3538 36.074H100.712C102.818 36.074 103.898 36.992 103.898 38.666C103.898 40.52 102.332 41.726 99.0918 41.726C95.9958 41.726 94.8618 40.682 94.8618 39.404C94.8618 38.612 95.3838 37.946 96.3558 37.64C95.5638 37.316 95.2218 36.722 95.2218 36.02C95.2218 35.102 95.7798 34.454 96.6438 34.112C95.9418 33.554 95.5458 32.762 95.5458 31.808C95.5458 30.026 96.9498 28.784 99.2358 28.784C99.9738 28.784 100.604 28.91 101.144 29.144C101.432 28.172 102.206 27.488 103.502 27.488C103.682 27.488 103.826 27.506 104.006 27.542V29.162C103.772 29.108 103.538 29.072 103.268 29.072ZM99.2358 33.572C100.244 33.572 100.892 32.834 100.892 31.826C100.892 30.8 100.244 30.098 99.2358 30.098C98.2278 30.098 97.5798 30.8 97.5798 31.808C97.5798 32.834 98.2278 33.572 99.2358 33.572ZM100.388 37.928L98.0478 37.91C97.7778 37.91 97.5258 37.91 97.3098 37.874C96.8598 38.162 96.6618 38.576 96.6618 39.008C96.6618 39.962 97.6878 40.322 99.2358 40.322C101.288 40.322 101.936 39.764 101.936 39.026C101.936 38.306 101.414 37.928 100.388 37.928ZM107.997 27.506H105.657V25.256H107.997V27.506ZM107.907 38H105.747V29H107.907V38ZM114.428 38.216C111.746 38.216 110.018 36.362 110.018 33.5C110.018 30.566 111.71 28.784 114.446 28.784C116.678 28.784 118.136 29.972 118.406 32.024L116.3 32.366C116.156 31.142 115.454 30.476 114.392 30.476C113.06 30.476 112.232 31.592 112.232 33.446C112.232 35.39 113.042 36.506 114.428 36.506C115.508 36.506 116.174 35.84 116.372 34.58L118.406 34.994C118.082 36.992 116.57 38.216 114.428 38.216ZM127.531 38H125.209V25.22H127.531V38ZM132.709 38H130.549V29H132.601V30.746C133.213 29.432 134.203 28.784 135.589 28.784C137.551 28.784 138.577 30.008 138.577 32.42V38H136.417V32.636C136.417 31.214 135.859 30.512 134.725 30.512C133.465 30.512 132.709 31.52 132.709 33.23V38ZM141.422 30.566H139.802V29H141.422V26.732L143.582 25.868V29H145.778V30.566H143.582V34.868C143.582 35.822 143.996 36.29 144.896 36.29C145.256 36.29 145.49 36.236 145.778 36.182V38C145.256 38.108 144.86 38.162 144.302 38.162C142.142 38.162 141.422 37.028 141.422 35.21V30.566ZM155.32 33.05V34.04H149.002C149.02 35.552 149.974 36.524 151.396 36.524C152.422 36.524 153.178 36.002 153.592 35.03L155.248 35.786C154.582 37.352 153.16 38.216 151.324 38.216C148.57 38.216 146.914 36.542 146.914 33.59C146.914 30.62 148.534 28.784 151.216 28.784C153.826 28.784 155.32 30.296 155.32 33.05ZM149.002 32.618H153.196V32.474C153.196 30.998 152.458 30.224 151.18 30.224C149.812 30.224 149.038 31.124 149.002 32.618ZM159.548 29V31.178C159.998 29.756 160.952 28.784 162.41 28.784C162.5 28.784 162.572 28.784 162.662 28.802V30.872C162.572 30.872 162.482 30.854 162.374 30.854C161.51 30.854 160.916 31.106 160.502 31.502C159.782 32.204 159.692 33.23 159.692 34.22V38H157.532V29H159.548ZM169.093 38H166.753L163.549 29H165.817L167.563 34.706C167.707 35.174 167.815 35.624 167.887 36.038H167.941C168.013 35.624 168.121 35.174 168.265 34.706L170.029 29H172.297L169.093 38ZM176.129 27.506H173.789V25.256H176.129V27.506ZM176.039 38H173.879V29H176.039V38ZM186.557 33.05V34.04H180.239C180.257 35.552 181.211 36.524 182.633 36.524C183.659 36.524 184.415 36.002 184.829 35.03L186.485 35.786C185.819 37.352 184.397 38.216 182.561 38.216C179.807 38.216 178.151 36.542 178.151 33.59C178.151 30.62 179.771 28.784 182.453 28.784C185.063 28.784 186.557 30.296 186.557 33.05ZM180.239 32.618H184.433V32.474C184.433 30.998 183.695 30.224 182.417 30.224C181.049 30.224 180.275 31.124 180.239 32.618ZM193.722 32.168L192.192 38H189.996L187.53 29H189.654L191.04 34.994C191.094 35.282 191.166 35.624 191.202 35.966H191.238C191.292 35.624 191.364 35.282 191.436 34.994L192.912 29H194.946L196.44 34.994C196.494 35.282 196.584 35.624 196.62 35.966H196.656C196.71 35.624 196.764 35.282 196.818 34.994L198.222 29H200.346L197.862 38H195.666L194.136 32.168C194.082 31.898 193.974 31.412 193.956 31.178H193.92C193.884 31.412 193.794 31.898 193.722 32.168ZM205.334 38.216C203.282 38.216 201.752 37.352 201.194 35.768L202.796 35.048C203.21 36.056 204.11 36.632 205.388 36.632C206.486 36.632 207.062 36.164 207.062 35.516C207.062 34.868 206.666 34.616 205.784 34.472L204.182 34.184C202.49 33.878 201.608 32.996 201.608 31.556C201.608 29.936 202.994 28.784 205.28 28.784C207.188 28.784 208.646 29.558 209.078 30.854L207.566 31.664C207.134 30.854 206.342 30.35 205.154 30.35C204.146 30.35 203.588 30.728 203.588 31.43C203.588 32.042 203.984 32.312 204.776 32.456L206.54 32.78C208.286 33.086 209.024 33.95 209.024 35.372C209.024 37.064 207.692 38.216 205.334 38.216ZM217.443 38H215.913V24.95H217.443V30.692C217.983 29.432 218.991 28.784 220.395 28.784C222.339 28.784 223.365 30.026 223.365 32.402V38H221.835V32.51C221.835 30.926 221.169 30.098 219.873 30.098C218.325 30.098 217.443 31.268 217.443 33.302V38ZM233.447 32.87V33.95H227.057C227.075 35.714 228.137 36.866 229.739 36.866C230.891 36.866 231.737 36.254 232.133 35.156L233.393 35.714C232.763 37.352 231.449 38.216 229.631 38.216C227.057 38.216 225.527 36.578 225.527 33.608C225.527 30.602 227.039 28.784 229.613 28.784C232.043 28.784 233.447 30.17 233.447 32.87ZM227.057 32.708H231.899V32.51C231.899 30.854 231.053 29.99 229.577 29.99C227.993 29.99 227.093 31.016 227.057 32.708ZM235.97 24.95H237.5V38H235.97V24.95ZM242.263 41.51H240.733V29H242.173V30.674C242.749 29.432 243.793 28.784 245.107 28.784C247.285 28.784 248.743 30.656 248.743 33.5C248.743 36.38 247.195 38.216 245.017 38.216C243.631 38.216 242.659 37.46 242.263 36.578V41.51ZM244.657 36.866C246.187 36.866 247.123 35.606 247.123 33.5C247.123 31.376 246.223 30.134 244.711 30.134C243.199 30.134 242.227 31.322 242.227 33.266V33.698C242.227 35.642 243.163 36.866 244.657 36.866ZM71.5797 61H70.0497V47.95H71.5797V53.692C72.1197 52.432 73.1277 51.784 74.5317 51.784C76.4757 51.784 77.5017 53.026 77.5017 55.402V61H75.9717V55.51C75.9717 53.926 75.3057 53.098 74.0097 53.098C72.4617 53.098 71.5797 54.268 71.5797 56.302V61ZM82.1115 50.326H80.3655V48.4H82.1115V50.326ZM82.0035 61H80.4735V52H82.0035V61ZM85.2372 61V52H86.6772V53.566C87.1812 52.378 88.0452 51.784 89.2512 51.784C90.4932 51.784 91.3932 52.414 91.8072 53.584C92.4012 52.378 93.3192 51.784 94.5432 51.784C96.2712 51.784 97.2792 53.008 97.2792 55.096V61H95.7492V55.222C95.7492 53.818 95.1732 53.098 94.0392 53.098C92.7612 53.098 92.0232 54.034 92.0232 55.672V61H90.4932V55.15C90.4932 53.836 89.8812 53.098 88.8012 53.098C87.5412 53.098 86.7672 54.106 86.7672 55.744V61H85.2372ZM106.347 52V54.052C106.779 52.792 107.715 51.784 109.083 51.784C109.191 51.784 109.299 51.784 109.407 51.802V53.296H109.335C108.399 53.296 107.787 53.566 107.355 53.998C106.491 54.862 106.455 56.068 106.455 57.148V61H104.925V52H106.347ZM118.416 55.87V56.95H112.026C112.044 58.714 113.106 59.866 114.708 59.866C115.86 59.866 116.706 59.254 117.102 58.156L118.362 58.714C117.732 60.352 116.418 61.216 114.6 61.216C112.026 61.216 110.496 59.578 110.496 56.608C110.496 53.602 112.008 51.784 114.582 51.784C117.012 51.784 118.416 53.17 118.416 55.87ZM112.026 55.708H116.868V55.51C116.868 53.854 116.022 52.99 114.546 52.99C112.962 52.99 112.062 54.016 112.026 55.708ZM120.938 61V52H122.378V53.566C122.882 52.378 123.746 51.784 124.952 51.784C126.194 51.784 127.094 52.414 127.508 53.584C128.102 52.378 129.02 51.784 130.244 51.784C131.972 51.784 132.98 53.008 132.98 55.096V61H131.45V55.222C131.45 53.818 130.874 53.098 129.74 53.098C128.462 53.098 127.724 54.034 127.724 55.672V61H126.194V55.15C126.194 53.836 125.582 53.098 124.502 53.098C123.242 53.098 122.468 54.106 122.468 55.744V61H120.938ZM143.06 55.87V56.95H136.67C136.688 58.714 137.75 59.866 139.352 59.866C140.504 59.866 141.35 59.254 141.746 58.156L143.006 58.714C142.376 60.352 141.062 61.216 139.244 61.216C136.67 61.216 135.14 59.578 135.14 56.608C135.14 53.602 136.652 51.784 139.226 51.784C141.656 51.784 143.06 53.17 143.06 55.87ZM136.67 55.708H141.512V55.51C141.512 53.854 140.666 52.99 139.19 52.99C137.606 52.99 136.706 54.016 136.67 55.708ZM145.583 61V52H147.023V53.566C147.527 52.378 148.391 51.784 149.597 51.784C150.839 51.784 151.739 52.414 152.153 53.584C152.747 52.378 153.665 51.784 154.889 51.784C156.617 51.784 157.625 53.008 157.625 55.096V61H156.095V55.222C156.095 53.818 155.519 53.098 154.385 53.098C153.107 53.098 152.369 54.034 152.369 55.672V61H150.839V55.15C150.839 53.836 150.227 53.098 149.147 53.098C147.887 53.098 147.113 54.106 147.113 55.744V61H145.583ZM164.897 61.216C163.529 61.216 162.503 60.496 162.035 59.452L161.765 61H160.595V47.95H162.125V53.566C162.593 52.558 163.583 51.784 164.987 51.784C167.183 51.784 168.605 53.746 168.605 56.5C168.605 59.308 167.147 61.216 164.897 61.216ZM164.483 59.866C166.049 59.866 166.985 58.552 166.985 56.5C166.985 54.484 166.103 53.134 164.501 53.134C162.989 53.134 162.089 54.34 162.089 56.302V56.77C162.089 58.642 162.971 59.866 164.483 59.866ZM178.146 55.87V56.95H171.756C171.774 58.714 172.836 59.866 174.438 59.866C175.59 59.866 176.436 59.254 176.832 58.156L178.092 58.714C177.462 60.352 176.148 61.216 174.33 61.216C171.756 61.216 170.226 59.578 170.226 56.608C170.226 53.602 171.738 51.784 174.312 51.784C176.742 51.784 178.146 53.17 178.146 55.87ZM171.756 55.708H176.598V55.51C176.598 53.854 175.752 52.99 174.276 52.99C172.692 52.99 171.792 54.016 171.756 55.708ZM182.091 52V54.052C182.523 52.792 183.459 51.784 184.827 51.784C184.935 51.784 185.043 51.784 185.151 51.802V53.296H185.079C184.143 53.296 183.531 53.566 183.099 53.998C182.235 54.862 182.199 56.068 182.199 57.148V61H180.669V52H182.091ZM194.657 61.216C192.479 61.216 191.003 59.326 191.003 56.5C191.003 53.728 192.587 51.784 194.837 51.784C196.025 51.784 196.907 52.27 197.483 53.332V47.95H199.013V61H197.573V59.326C197.033 60.532 196.061 61.216 194.657 61.216ZM195.071 59.866C196.565 59.866 197.519 58.642 197.519 56.716V56.302C197.519 54.34 196.583 53.134 195.071 53.134C193.541 53.134 192.623 54.376 192.623 56.5C192.623 58.606 193.541 59.866 195.071 59.866ZM209.365 55.87V56.95H202.975C202.993 58.714 204.055 59.866 205.657 59.866C206.809 59.866 207.655 59.254 208.051 58.156L209.311 58.714C208.681 60.352 207.367 61.216 205.549 61.216C202.975 61.216 201.445 59.578 201.445 56.608C201.445 53.602 202.957 51.784 205.531 51.784C207.961 51.784 209.365 53.17 209.365 55.87ZM202.975 55.708H207.817V55.51C207.817 53.854 206.971 52.99 205.495 52.99C203.911 52.99 203.011 54.016 202.975 55.708ZM212.212 53.26H210.538V52H212.212V49.642L213.742 48.994V52H215.992V53.26H213.742V58.246C213.742 59.272 214.138 59.722 215.056 59.722C215.452 59.722 215.686 59.668 215.992 59.596V61C215.596 61.108 215.236 61.162 214.66 61.162C212.716 61.162 212.212 59.974 212.212 58.3V53.26ZM220.377 61.216C218.541 61.216 217.335 60.172 217.335 58.57C217.335 57.67 217.785 56.896 218.595 56.446C219.279 56.104 220.143 55.888 221.619 55.708L223.293 55.51V55.366C223.293 53.71 222.699 53.044 221.313 53.044C220.089 53.044 219.333 53.692 219.261 54.826H217.623C217.749 52.99 219.189 51.784 221.295 51.784C223.761 51.784 224.841 52.9 224.841 55.528V57.958C224.841 59.344 224.931 60.298 225.147 61H223.545C223.473 60.532 223.419 59.938 223.401 59.362C222.987 60.514 221.853 61.216 220.377 61.216ZM220.719 59.956C222.285 59.956 223.311 58.822 223.311 57.076V56.626L220.863 56.986C219.531 57.184 218.955 57.652 218.955 58.534C218.955 59.416 219.621 59.956 220.719 59.956ZM229.487 50.326H227.741V48.4H229.487V50.326ZM229.379 61H227.849V52H229.379V61ZM232.612 47.95H234.142V61H232.612V47.95ZM240.436 61.216C238.312 61.216 236.872 60.226 236.566 58.444L238.114 58.174C238.33 59.308 239.176 59.956 240.49 59.956C241.696 59.956 242.362 59.362 242.362 58.588C242.362 57.796 241.876 57.472 241.066 57.328L239.302 57.004C237.772 56.716 236.908 55.852 236.908 54.484C236.908 52.936 238.204 51.784 240.328 51.784C242.344 51.784 243.712 52.702 243.892 54.214L242.38 54.556C242.182 53.656 241.48 53.026 240.256 53.026C239.104 53.026 238.402 53.53 238.402 54.412C238.402 55.168 238.906 55.528 239.788 55.69L241.534 56.014C243.154 56.32 243.874 57.148 243.874 58.462C243.874 60.082 242.632 61.216 240.436 61.216Z" fill="#042A21"/>
</svg>
