<svg width="74" height="90" viewBox="0 0 74 90" fill="none" xmlns="http://www.w3.org/2000/svg">
<path d="M53.0504 87.9841C51.454 85.219 48.1238 78.3418 48.4771 71.6173C48.8205 65.0806 53.0122 60.6331 56.6607 57.6411C59.9319 54.9586 62.52 54.1275 64.5284 53.668C65.8897 53.3565 67.5476 53.8165 68.766 54.5035C70.0312 55.2168 71.8725 56.8257 71.8765 58.8899C71.8796 60.4887 70.2284 62.668 66.1659 63.7875C62.7085 64.7403 57.5773 63.3307 50.0319 59.62C45.4132 57.3487 40.8876 49.491 40.2682 43.5655C39.6077 37.2474 42.8793 32.9192 44.616 30.1664C46.3408 27.4324 48.4379 26.5477 50.1278 25.8989C51.586 25.3392 53.4768 25.9894 54.1338 26.6023C55.6208 27.9893 55.189 30.0309 54.7469 30.814C54.3047 31.5972 52.6934 32.967 51.2322 33.248C47.254 34.0129 43.2728 32.0108 40.4169 30.1709C35.9615 27.3004 33.7297 20.0753 33.3385 15.7734C32.9263 11.2401 33.4276 9.13922 37.5309 4.70831C38.6418 3.50876 41.159 2.10912 42.1636 2.03364C44.0304 1.89337 46.4584 2.56804 47.2886 4.50997C47.7789 5.65685 49.197 7.62325 46.0164 12.5424C44.5324 14.8375 37.2768 18.9382 31.9451 20.6665C27.9586 21.9587 18.6436 18.203 13.3165 16.5073C11.2252 15.6099 8.5923 14.7033 5.98128 14.0789C4.80293 13.833 3.92231 13.7309 2.01596 14.0214" stroke="#F1D8C4" stroke-width="4" stroke-linecap="round"/>
</svg>
