<svg width="293" height="86" viewBox="0 0 293 86" fill="none" xmlns="http://www.w3.org/2000/svg">
<path d="M29.763 43.0002C29.763 37.029 29.763 34.0435 31.618 32.1885C33.473 30.3335 36.4585 30.3335 42.4297 30.3335C48.4008 30.3335 51.3864 30.3335 53.2413 32.1885C55.0963 34.0435 55.0963 37.029 55.0963 43.0002C55.0963 48.9713 55.0963 51.9568 53.2413 53.8118C51.3864 55.6668 48.4008 55.6668 42.4297 55.6668C36.4585 55.6668 33.473 55.6668 31.618 53.8118C29.763 51.9568 29.763 48.9713 29.763 43.0002Z" stroke="#042A21" stroke-width="2"/>
<path d="M42.4297 37.6665V48.3332" stroke="#042A21" stroke-width="2" stroke-linecap="round" stroke-linejoin="round"/>
<path d="M38.4297 40.3335V45.6668" stroke="#042A21" stroke-width="2" stroke-linecap="round" stroke-linejoin="round"/>
<path d="M34.4297 41.6665V44.3332" stroke="#042A21" stroke-width="2" stroke-linecap="round" stroke-linejoin="round"/>
<path d="M46.4297 40.3335V45.6668" stroke="#042A21" stroke-width="2" stroke-linecap="round" stroke-linejoin="round"/>
<path d="M50.4297 41.6665V44.3332" stroke="#042A21" stroke-width="2" stroke-linecap="round" stroke-linejoin="round"/>
<path d="M74.2257 38.306C71.2017 38.306 69.4017 36.812 68.8797 34.724L70.8597 33.86C71.2737 35.3 72.3177 36.452 74.3157 36.452C75.6297 36.452 76.8537 35.93 76.8537 34.598C76.8537 33.356 76.0977 32.924 74.6937 32.636L72.9117 32.258C70.8957 31.844 69.5457 30.764 69.5457 28.586C69.5457 26.372 71.3637 24.914 74.2437 24.914C76.6557 24.914 78.5817 25.904 79.1397 28.028L77.3037 29C76.8897 27.524 75.8277 26.678 74.1357 26.678C72.7317 26.678 71.7957 27.326 71.7957 28.406C71.7957 29.45 72.3897 29.99 73.7757 30.296L75.6477 30.692C77.7537 31.142 79.1577 32.114 79.1577 34.382C79.1577 36.578 77.5017 38.306 74.2257 38.306ZM81.5153 30.566H79.8953V29H81.5153V26.732L83.6753 25.868V29H85.8713V30.566H83.6753V34.868C83.6753 35.822 84.0893 36.29 84.9893 36.29C85.3493 36.29 85.5833 36.236 85.8713 36.182V38C85.3493 38.108 84.9533 38.162 84.3953 38.162C82.2353 38.162 81.5153 37.028 81.5153 35.21V30.566ZM91.4182 38.216C88.8262 38.216 87.0082 36.506 87.0082 33.482C87.0082 30.476 88.8262 28.784 91.4182 28.784C94.0102 28.784 95.8282 30.476 95.8282 33.482C95.8282 36.506 94.0102 38.216 91.4182 38.216ZM91.4182 36.578C92.8042 36.578 93.6142 35.534 93.6142 33.482C93.6142 31.43 92.8042 30.422 91.4182 30.422C90.0322 30.422 89.2042 31.43 89.2042 33.482C89.2042 35.534 90.0322 36.578 91.4182 36.578ZM99.9755 29V31.178C100.426 29.756 101.38 28.784 102.838 28.784C102.928 28.784 103 28.784 103.09 28.802V30.872C103 30.872 102.91 30.854 102.802 30.854C101.938 30.854 101.344 31.106 100.93 31.502C100.21 32.204 100.12 33.23 100.12 34.22V38H97.9595V29H99.9755ZM105.578 41.6C105.308 41.6 104.966 41.564 104.588 41.51V39.8C104.912 39.872 105.128 39.872 105.344 39.872C106.406 39.872 106.964 39.44 107.306 38.45L107.486 37.91L103.976 29H106.352L108.314 34.886C108.458 35.3 108.53 35.642 108.566 35.948H108.602C108.656 35.678 108.746 35.354 108.872 34.886L110.672 29H112.904L109.538 38.504C108.728 40.79 107.504 41.6 105.578 41.6ZM124.291 38.306C120.277 38.306 118.315 35.462 118.315 31.592C118.315 27.614 120.493 24.914 124.327 24.914C127.513 24.914 129.331 26.732 129.673 29.45L127.297 29.792C127.081 27.974 126.019 26.822 124.255 26.822C122.005 26.822 120.709 28.712 120.709 31.574C120.709 34.364 121.969 36.362 124.309 36.362C125.947 36.362 127.063 35.264 127.387 33.464L129.691 33.932C129.151 36.488 127.405 38.306 124.291 38.306ZM134.119 38.216C132.265 38.216 131.041 37.154 131.041 35.552C131.041 34.688 131.419 33.968 132.139 33.518C132.787 33.14 133.651 32.906 135.073 32.708L136.981 32.474V32.24C136.981 30.89 136.459 30.314 135.307 30.314C134.245 30.314 133.615 30.872 133.543 31.898H131.329C131.473 29.972 132.985 28.784 135.307 28.784C137.971 28.784 139.159 29.918 139.159 32.528V35.21C139.159 36.434 139.249 37.37 139.429 38H137.269C137.197 37.55 137.143 37.01 137.125 36.452C136.693 37.55 135.559 38.216 134.119 38.216ZM134.803 36.686C136.135 36.686 137.035 35.732 137.035 34.31V33.734L135.001 34.04C133.813 34.238 133.273 34.67 133.273 35.444C133.273 36.2 133.849 36.686 134.803 36.686ZM141.817 24.95H143.977V38H141.817V24.95ZM146.844 24.95H149.004V38H146.844V24.95ZM155.166 38.216C153.114 38.216 151.584 37.352 151.026 35.768L152.628 35.048C153.042 36.056 153.942 36.632 155.22 36.632C156.318 36.632 156.894 36.164 156.894 35.516C156.894 34.868 156.498 34.616 155.616 34.472L154.014 34.184C152.322 33.878 151.44 32.996 151.44 31.556C151.44 29.936 152.826 28.784 155.112 28.784C157.02 28.784 158.478 29.558 158.91 30.854L157.398 31.664C156.966 30.854 156.174 30.35 154.986 30.35C153.978 30.35 153.42 30.728 153.42 31.43C153.42 32.042 153.816 32.312 154.608 32.456L156.372 32.78C158.118 33.086 158.856 33.95 158.856 35.372C158.856 37.064 157.524 38.216 155.166 38.216ZM169.18 38.216C166.66 38.216 165.04 36.38 165.04 33.5C165.04 30.566 166.624 28.784 169.18 28.784C171.286 28.784 172.654 29.99 172.888 32.06L171.322 32.24C171.16 30.872 170.368 30.116 169.144 30.116C167.596 30.116 166.66 31.376 166.66 33.482C166.66 35.642 167.596 36.884 169.198 36.884C170.422 36.884 171.178 36.146 171.412 34.742L172.87 34.976C172.546 37.028 171.196 38.216 169.18 38.216ZM177.557 38.216C175.721 38.216 174.515 37.172 174.515 35.57C174.515 34.67 174.965 33.896 175.775 33.446C176.459 33.104 177.323 32.888 178.799 32.708L180.473 32.51V32.366C180.473 30.71 179.879 30.044 178.493 30.044C177.269 30.044 176.513 30.692 176.441 31.826H174.803C174.929 29.99 176.369 28.784 178.475 28.784C180.941 28.784 182.021 29.9 182.021 32.528V34.958C182.021 36.344 182.111 37.298 182.327 38H180.725C180.653 37.532 180.599 36.938 180.581 36.362C180.167 37.514 179.033 38.216 177.557 38.216ZM177.899 36.956C179.465 36.956 180.491 35.822 180.491 34.076V33.626L178.043 33.986C176.711 34.184 176.135 34.652 176.135 35.534C176.135 36.416 176.801 36.956 177.899 36.956ZM186.558 41.51H185.028V29H186.468V30.674C187.044 29.432 188.088 28.784 189.402 28.784C191.58 28.784 193.038 30.656 193.038 33.5C193.038 36.38 191.49 38.216 189.312 38.216C187.926 38.216 186.954 37.46 186.558 36.578V41.51ZM188.952 36.866C190.482 36.866 191.418 35.606 191.418 33.5C191.418 31.376 190.518 30.134 189.006 30.134C187.494 30.134 186.522 31.322 186.522 33.266V33.698C186.522 35.642 187.458 36.866 188.952 36.866ZM195.794 30.26H194.12V29H195.794V26.642L197.324 25.994V29H199.574V30.26H197.324V35.246C197.324 36.272 197.72 36.722 198.638 36.722C199.034 36.722 199.268 36.668 199.574 36.596V38C199.178 38.108 198.818 38.162 198.242 38.162C196.298 38.162 195.794 36.974 195.794 35.3V30.26ZM204.623 38.216C202.355 38.216 201.545 36.848 201.545 34.742V29H203.075V34.562C203.075 36.074 203.723 36.902 204.911 36.902C206.351 36.902 207.323 35.678 207.323 33.842V29H208.853V38H207.413V36.308C206.999 37.406 205.883 38.216 204.623 38.216ZM213.521 29V31.052C213.953 29.792 214.889 28.784 216.257 28.784C216.365 28.784 216.473 28.784 216.581 28.802V30.296H216.509C215.573 30.296 214.961 30.566 214.529 30.998C213.665 31.862 213.629 33.068 213.629 34.148V38H212.099V29H213.521ZM225.589 32.87V33.95H219.199C219.217 35.714 220.279 36.866 221.881 36.866C223.033 36.866 223.879 36.254 224.275 35.156L225.535 35.714C224.905 37.352 223.591 38.216 221.773 38.216C219.199 38.216 217.669 36.578 217.669 33.608C217.669 30.602 219.181 28.784 221.755 28.784C224.185 28.784 225.589 30.17 225.589 32.87ZM219.199 32.708H224.041V32.51C224.041 30.854 223.195 29.99 221.719 29.99C220.135 29.99 219.235 31.016 219.199 32.708ZM234.318 38H232.788V24.95H234.318V30.692C234.858 29.432 235.866 28.784 237.27 28.784C239.214 28.784 240.24 30.026 240.24 32.402V38H238.71V32.51C238.71 30.926 238.044 30.098 236.748 30.098C235.2 30.098 234.318 31.268 234.318 33.302V38ZM244.85 27.326H243.104V25.4H244.85V27.326ZM244.742 38H243.212V29H244.742V38ZM251.035 38.216C248.911 38.216 247.471 37.226 247.165 35.444L248.713 35.174C248.929 36.308 249.775 36.956 251.089 36.956C252.295 36.956 252.961 36.362 252.961 35.588C252.961 34.796 252.475 34.472 251.665 34.328L249.901 34.004C248.371 33.716 247.507 32.852 247.507 31.484C247.507 29.936 248.803 28.784 250.927 28.784C252.943 28.784 254.311 29.702 254.491 31.214L252.979 31.556C252.781 30.656 252.079 30.026 250.855 30.026C249.703 30.026 249.001 30.53 249.001 31.412C249.001 32.168 249.505 32.528 250.387 32.69L252.133 33.014C253.753 33.32 254.473 34.148 254.473 35.462C254.473 37.082 253.231 38.216 251.035 38.216ZM73.5057 61H71.8677L68.6097 52H70.2657L72.2817 58.066C72.4437 58.552 72.5697 59.02 72.6597 59.434H72.7137C72.8037 59.02 72.9297 58.552 73.0917 58.066L75.1077 52H76.7637L73.5057 61ZM81.8536 61.216C79.3156 61.216 77.6596 59.434 77.6596 56.5C77.6596 53.566 79.3156 51.784 81.8536 51.784C84.3916 51.784 86.0476 53.566 86.0476 56.5C86.0476 59.434 84.3916 61.216 81.8536 61.216ZM81.8536 59.884C83.4736 59.884 84.4276 58.732 84.4276 56.5C84.4276 54.268 83.4736 53.116 81.8536 53.116C80.2336 53.116 79.2796 54.268 79.2796 56.5C79.2796 58.732 80.2336 59.884 81.8536 59.884ZM90.1096 50.326H88.3636V48.4H90.1096V50.326ZM90.0016 61H88.4716V52H90.0016V61ZM96.5652 61.216C94.0452 61.216 92.4252 59.38 92.4252 56.5C92.4252 53.566 94.0092 51.784 96.5652 51.784C98.6712 51.784 100.039 52.99 100.273 55.06L98.7072 55.24C98.5452 53.872 97.7532 53.116 96.5292 53.116C94.9812 53.116 94.0452 54.376 94.0452 56.482C94.0452 58.642 94.9812 59.884 96.5832 59.884C97.8072 59.884 98.5632 59.146 98.7972 57.742L100.255 57.976C99.9312 60.028 98.5812 61.216 96.5652 61.216ZM109.82 55.87V56.95H103.43C103.448 58.714 104.51 59.866 106.112 59.866C107.264 59.866 108.11 59.254 108.506 58.156L109.766 58.714C109.136 60.352 107.822 61.216 106.004 61.216C103.43 61.216 101.9 59.578 101.9 56.608C101.9 53.602 103.412 51.784 105.986 51.784C108.416 51.784 109.82 53.17 109.82 55.87ZM103.43 55.708H108.272V55.51C108.272 53.854 107.426 52.99 105.95 52.99C104.366 52.99 103.466 54.016 103.43 55.708ZM120.06 61H118.386L115.848 52H117.432L119.052 58.426C119.124 58.75 119.196 59.128 119.25 59.488H119.286C119.34 59.128 119.448 58.75 119.52 58.426L121.158 52H122.814L124.452 58.426C124.524 58.75 124.632 59.128 124.686 59.488H124.722C124.776 59.128 124.848 58.75 124.92 58.426L126.54 52H128.124L125.586 61H123.912L122.202 54.52C122.13 54.232 122.04 53.782 122.004 53.512H121.968C121.932 53.782 121.842 54.232 121.77 54.52L120.06 61ZM133.498 61.216C130.96 61.216 129.304 59.434 129.304 56.5C129.304 53.566 130.96 51.784 133.498 51.784C136.036 51.784 137.692 53.566 137.692 56.5C137.692 59.434 136.036 61.216 133.498 61.216ZM133.498 59.884C135.118 59.884 136.072 58.732 136.072 56.5C136.072 54.268 135.118 53.116 133.498 53.116C131.878 53.116 130.924 54.268 130.924 56.5C130.924 58.732 131.878 59.884 133.498 59.884ZM141.538 52V54.052C141.97 52.792 142.906 51.784 144.274 51.784C144.382 51.784 144.49 51.784 144.598 51.802V53.296H144.526C143.59 53.296 142.978 53.566 142.546 53.998C141.682 54.862 141.646 56.068 141.646 57.148V61H140.116V52H141.538ZM149.341 61.216C147.163 61.216 145.687 59.326 145.687 56.5C145.687 53.728 147.271 51.784 149.521 51.784C150.709 51.784 151.591 52.27 152.167 53.332V47.95H153.697V61H152.257V59.326C151.717 60.532 150.745 61.216 149.341 61.216ZM149.755 59.866C151.249 59.866 152.203 58.642 152.203 56.716V56.302C152.203 54.34 151.267 53.134 149.755 53.134C148.225 53.134 147.307 54.376 147.307 56.5C147.307 58.606 148.225 59.866 149.755 59.866ZM156.218 56.716V55.276H161.42V56.716H156.218ZM165.86 52H168.11V53.26H165.86V61H164.33V53.26H162.674V52H164.33V50.578C164.33 48.94 165.356 47.842 166.958 47.842C167.39 47.842 167.768 47.878 168.11 47.968V49.282C167.786 49.228 167.444 49.192 167.156 49.192C166.238 49.192 165.86 49.696 165.86 50.794V52ZM173.295 61.216C170.757 61.216 169.101 59.434 169.101 56.5C169.101 53.566 170.757 51.784 173.295 51.784C175.833 51.784 177.489 53.566 177.489 56.5C177.489 59.434 175.833 61.216 173.295 61.216ZM173.295 59.884C174.915 59.884 175.869 58.732 175.869 56.5C175.869 54.268 174.915 53.116 173.295 53.116C171.675 53.116 170.721 54.268 170.721 56.5C170.721 58.732 171.675 59.884 173.295 59.884ZM181.335 52V54.052C181.767 52.792 182.703 51.784 184.071 51.784C184.179 51.784 184.287 51.784 184.395 51.802V53.296H184.323C183.387 53.296 182.775 53.566 182.343 53.998C181.479 54.862 181.443 56.068 181.443 57.148V61H179.913V52H181.335ZM185.099 56.716V55.276H190.301V56.716H185.099ZM195.682 61H194.008L191.47 52H193.054L194.674 58.426C194.746 58.75 194.818 59.128 194.872 59.488H194.908C194.962 59.128 195.07 58.75 195.142 58.426L196.78 52H198.436L200.074 58.426C200.146 58.75 200.254 59.128 200.308 59.488H200.344C200.398 59.128 200.47 58.75 200.542 58.426L202.162 52H203.746L201.208 61H199.534L197.824 54.52C197.752 54.232 197.662 53.782 197.626 53.512H197.59C197.554 53.782 197.464 54.232 197.392 54.52L195.682 61ZM209.119 61.216C206.581 61.216 204.925 59.434 204.925 56.5C204.925 53.566 206.581 51.784 209.119 51.784C211.657 51.784 213.313 53.566 213.313 56.5C213.313 59.434 211.657 61.216 209.119 61.216ZM209.119 59.884C210.739 59.884 211.693 58.732 211.693 56.5C211.693 54.268 210.739 53.116 209.119 53.116C207.499 53.116 206.545 54.268 206.545 56.5C206.545 58.732 207.499 59.884 209.119 59.884ZM217.159 52V54.052C217.591 52.792 218.527 51.784 219.895 51.784C220.003 51.784 220.111 51.784 220.219 51.802V53.296H220.147C219.211 53.296 218.599 53.566 218.167 53.998C217.303 54.862 217.267 56.068 217.267 57.148V61H215.737V52H217.159ZM224.962 61.216C222.784 61.216 221.308 59.326 221.308 56.5C221.308 53.728 222.892 51.784 225.142 51.784C226.33 51.784 227.212 52.27 227.788 53.332V47.95H229.318V61H227.878V59.326C227.338 60.532 226.366 61.216 224.962 61.216ZM225.376 59.866C226.87 59.866 227.824 58.642 227.824 56.716V56.302C227.824 54.34 226.888 53.134 225.376 53.134C223.846 53.134 222.928 54.376 222.928 56.5C222.928 58.606 223.846 59.866 225.376 59.866Z" fill="#042A21"/>
</svg>
